<svg xmlns="http://www.w3.org/2000/svg" version="1.1" xmlns:xlink="http://www.w3.org/1999/xlink" xmlns:svgjs="http://svgjs.com/svgjs" width="1440" height="560" preserveAspectRatio="none" viewBox="0 0 1440 560"><g mask="url(&quot;#SvgjsMask1108&quot;)" fill="none"><rect width="1440" height="560" x="0" y="0" fill="rgba(4, 92, 140, 1)"></rect><path d="M0,605.349C118.721,596.058,236.698,587.624,342.418,532.813C455.289,474.295,583.097,404.926,620.785,283.503C658.185,163.009,580.192,39.977,531.518,-76.421C493.119,-168.247,433.099,-243.59,368.652,-319.439C303.55,-396.059,246.312,-483.797,153.182,-521.689C55.511,-561.428,-56.453,-566.316,-156.539,-533.123C-255.021,-500.462,-319.94,-414.208,-393.013,-340.548C-471.558,-261.373,-561.335,-190.908,-599.858,-86.247C-643.521,32.378,-662.432,164.43,-623.099,284.56C-581.747,410.856,-496.841,528.419,-378.687,589.248C-264.034,648.275,-128.562,615.41,0,605.349" fill="#034e77"></path><path d="M1440 1111.589C1554.008 1120.182 1674.888 1136.5810000000001 1774.623 1080.683 1876.43 1023.623 1934.6970000000001 914.217 1982.288 807.654 2029.5729999999999 701.778 2049.29 588.77 2046.0810000000001 472.859 2042.547 345.22900000000004 2043.62 205.82999999999998 1962.886 106.916 1881.584 7.30499999999995 1746.41-31.701000000000022 1619.1680000000001-50.19100000000003 1502.588-67.13099999999997 1386.69-37.428 1277.729 7.354000000000042 1177.208 48.66699999999997 1081.693 106.596 1019.994 196.063 961.633 280.69 960.3199999999999 387.176 945.63 488.92 930.931 590.728 900.048 693.9739999999999 934.091 791.0409999999999 969.559 892.172 1045.769 975.212 1136.297 1032.571 1226.4850000000001 1089.7150000000001 1333.535 1103.5639999999999 1440 1111.589" fill="#056aa1"></path></g><defs><mask id="SvgjsMask1108"><rect width="1440" height="560" fill="#ffffff"></rect></mask></defs></svg>