<svg xmlns="http://www.w3.org/2000/svg" version="1.1" xmlns:xlink="http://www.w3.org/1999/xlink" xmlns:svgjs="http://svgjs.com/svgjs" width="2200" height="700" preserveAspectRatio="none" viewBox="0 0 2200 700"><g mask="url(&quot;#SvgjsMask1028&quot;)" fill="none"><rect width="2200" height="700" x="0" y="0" fill="rgba(4, 92, 140, 1)"></rect><path d="M0,905.943C169.692,887.068,324.302,820.229,471.136,733.101C622.705,643.163,787.66,553.453,862.752,394.006C938.141,233.929,905.139,48.567,875.685,-125.905C846.843,-296.752,817.198,-479.436,694.627,-601.897C574.76,-721.656,385.119,-712.362,227.208,-773.799C50.375,-842.597,-104.364,-1027.884,-289.113,-984.63C-472.904,-941.6,-547.19,-722.457,-654.721,-567.319C-750.892,-428.572,-839.788,-290.083,-883.544,-127.034C-931.889,53.114,-981.189,243.916,-919.682,420.005C-855.937,602.502,-714.595,755.67,-543.677,845.979C-379.139,932.917,-184.953,926.515,0,905.943" fill="#04517b"></path><path d="M2200 1594.375C2381.528 1599.941 2568.681 1608.458 2729.038 1523.199 2896.114 1434.368 3034.571 1288.921 3104.9030000000002 1113.255 3173.732 941.344 3186.378 738.182 3111.071 569.008 3041.2 412.048 2850.7380000000003 360.97 2720.265 249.188 2613.455 157.67999999999995 2532.264 47.58100000000002 2413.8559999999998-28.325000000000045 2255.895-129.586 2092.166-331.5899999999999 1916.299-266.197 1735.887-199.11400000000003 1785.1190000000001 87.40200000000004 1676.067 246.00900000000001 1584.908 378.592 1390.431 424.097 1337.266 575.958 1281.309 735.794 1326.074 913.264 1387.175 1071.205 1450.854 1235.8110000000001 1542.9969999999998 1395.863 1691.407 1491.386 1839.862 1586.938 2023.535 1588.9650000000001 2200 1594.375" fill="#05679d"></path></g><defs><mask id="SvgjsMask1028"><rect width="2200" height="700" fill="#ffffff"></rect></mask></defs></svg>