<?xml version="1.0"?>
<svg xmlns="http://www.w3.org/2000/svg" xmlns:xlink="http://www.w3.org/1999/xlink" xmlns:svgjs="http://svgjs.com/svgjs" version="1.1" width="512" height="512" x="0" y="0" viewBox="0 0 512.001 512" style="enable-background:new 0 0 512 512" xml:space="preserve" class=""><g><path xmlns="http://www.w3.org/2000/svg" d="m0 59.3125v214.425781c0 32.757813 68.664062 59.3125 153.363281 59.3125 84.703125 0 153.367188-26.554687 153.367188-59.3125v-214.425781" fill="#fe6a16" data-original="#fe6a16" style="" class=""/><path xmlns="http://www.w3.org/2000/svg" d="m0 59.3125v214.425781c0 32.757813 68.664062 59.3125 153.363281 59.3125 84.703125 0 153.367188-26.554687 153.367188-59.3125v-214.425781zm0 0" fill="#de7177" data-original="#06ccab" style="" class=""/><path xmlns="http://www.w3.org/2000/svg" d="m153.363281 59.3125v273.738281c84.703125 0 153.367188-26.554687 153.367188-59.3125v-214.425781zm0 0" fill="#d5474f" data-original="#00bd9d" style="" class=""/><path xmlns="http://www.w3.org/2000/svg" d="m153.363281 225.839844c-84.699219 0-153.363281-26.554688-153.363281-59.3125v107.210937c0 32.757813 68.664062 59.3125 153.363281 59.3125 84.703125 0 153.367188-26.554687 153.367188-59.3125v-107.210937c0 32.757812-68.664063 59.3125-153.367188 59.3125zm0 0" fill="#d5474f" data-original="#00bd9d" style="" class=""/><path xmlns="http://www.w3.org/2000/svg" d="m153.363281 225.839844v107.210937c84.703125 0 153.367188-26.554687 153.367188-59.3125v-107.210937c0 32.757812-68.664063 59.3125-153.367188 59.3125zm0 0" fill="#de7177" data-original="#11a892" style="" class=""/><path xmlns="http://www.w3.org/2000/svg" d="m306.730469 59.3125c0-32.757812-68.664063-59.3125-153.367188-59.3125-84.699219 0-153.363281 26.554688-153.363281 59.3125s68.664062 59.3125 153.363281 59.3125c84.703125 0 153.367188-26.554688 153.367188-59.3125zm0 0" fill="#e89a9e" data-original="#95e8c8" style="" class=""/><path xmlns="http://www.w3.org/2000/svg" d="m306.730469 59.3125c0 32.757812-68.664063 59.3125-153.367188 59.3125 0-64.972656 0-74.867188 0-118.625 84.703125 0 153.367188 26.554688 153.367188 59.3125zm0 0" fill="#de7177" data-original="#82d9b6" style="" class=""/><path xmlns="http://www.w3.org/2000/svg" d="m454.363281 271.503906c-3.335937 0-6.597656.296875-9.777343.839844.316406-3.332031.492187-6.707031.492187-10.125 0-58.539062-47.453125-105.992188-105.992187-105.992188-56.003907 0-101.832032 43.441407-105.699219 98.464844-8.777344-4.03125-18.535157-6.296875-28.828125-6.296875-38.214844 0-69.191406 30.980469-69.191406 69.191407 0 38.214843 30.976562 69.195312 69.191406 69.195312h249.804687c31.832031 0 57.636719-25.808594 57.636719-57.640625s-25.804688-57.636719-57.636719-57.636719zm0 0" fill="#136b9b" data-original="#bfe1ff" style="" class=""/><path xmlns="http://www.w3.org/2000/svg" d="m454.363281 271.503906c-3.335937 0-6.597656.296875-9.777343.839844.316406-3.332031.492187-6.707031.492187-10.125 0-58.539062-47.453125-105.992188-105.992187-105.992188-5.230469 0-10.375.378907-15.402344 1.113282v229.441406h130.679687c31.832031 0 57.636719-25.808594 57.636719-57.640625s-25.804688-57.636719-57.636719-57.636719zm0 0" fill="#045c8c" data-original="#a3d4ff" style="" class=""/></g></svg>
