<?xml version="1.0"?>
<svg xmlns="http://www.w3.org/2000/svg" xmlns:xlink="http://www.w3.org/1999/xlink" xmlns:svgjs="http://svgjs.com/svgjs" version="1.1" width="512" height="512" x="0" y="0" viewBox="0 0 510 510" style="enable-background:new 0 0 512 512" xml:space="preserve" class=""><g><g xmlns="http://www.w3.org/2000/svg"><path id="XMLID_914_" d="m210 285v30 30 22.5 22.5c0 12.427 5.037 23.677 13.18 31.82s19.393 13.18 31.82 13.18l10-80-10-70-22.5-10z" fill="#045c8c" data-original="#f4f1f1" style="" class=""/><path id="XMLID_912_" d="m300 435h75 75l10-45-10-45h-75-75v-30-30l-22.5-10-22.5 10v150h22.5z" fill="#045c8c" data-original="#eceae7" style="" class=""/><path id="XMLID_910_" d="m480 300h-15-15v22.5 22.5 45 45 22.5 22.5h15 15 15 15v-90-90h-15z" fill="#e7bd4e" data-original="#00c6cb" style="" class=""/><path id="XMLID_908_" d="m232.5 75h-22.5-75-75l-15 45 15 45h75 75v30 30l30 15 15-15 15-75-15-75z" fill="#045c8c" data-original="#f4f1f1" style="" class=""/><path id="XMLID_905_" d="m30 30h-15-15v90 90h15 15 15 15v-22.5-22.5-45-45-22.5-22.5h-15z" fill="#d5474f" data-original="#00ddc1" style="" class=""/><path id="XMLID_900_" d="m300 195v-30-22.5-22.5c0-12.427-5.037-23.677-13.18-31.82-8.144-8.143-19.394-13.18-31.82-13.18v150l22.5 10 22.5-10z" fill="#045c8c" data-original="#eceae7" style="" class=""/><path id="XMLID_896_" d="m150 225v30 30h105l10-30-10-30z" fill="#d5474f" data-original="#00ddc1" style="" class=""/><path id="XMLID_891_" d="m360 255v-30h-105v60h105z" fill="#e7bd4e" data-original="#00c6cb" style="" class=""/></g></g></svg>
