<?xml version="1.0"?>
<svg xmlns="http://www.w3.org/2000/svg" xmlns:xlink="http://www.w3.org/1999/xlink" xmlns:svgjs="http://svgjs.com/svgjs" version="1.1" width="512" height="512" x="0" y="0" viewBox="0 0 512 512" style="enable-background:new 0 0 512 512" xml:space="preserve" class=""><g><g xmlns="http://www.w3.org/2000/svg"><g><path d="m304.898 323.733h-145.359c-4.267 0-7.726-3.459-7.726-7.726s3.459-7.726 7.726-7.726h145.359c4.267 0 7.726 3.459 7.726 7.726s-3.459 7.726-7.726 7.726z" fill="#edce7b" data-original="#dfebfa" style="" class=""/></g><g><path d="m340.82 373.262h-217.15c-4.267 0-7.726-3.459-7.726-7.726s3.459-7.726 7.726-7.726h217.15c4.267 0 7.726 3.459 7.726 7.726.001 4.266-3.459 7.726-7.726 7.726z" fill="#edce7b" data-original="#dfebfa" style="" class=""/></g><g><path d="m356.116 422.79h-247.758c-4.267 0-7.726-3.459-7.726-7.726s3.459-7.726 7.726-7.726h247.757c4.267 0 7.726 3.459 7.726 7.726s-3.458 7.726-7.725 7.726z" fill="#edce7b" data-original="#dfebfa" style="" class=""/></g><g><path d="m355.811 472.318h-247.052c-4.267 0-7.726-3.459-7.726-7.726s3.459-7.726 7.726-7.726h247.052c4.267 0 7.726 3.459 7.726 7.726.001 4.267-3.459 7.726-7.726 7.726z" fill="#edce7b" data-original="#dfebfa" style="" class=""/></g><path d="m227.532 269.88c-12.484-3.939-24.325-8.968-35.471-14.93-36.595 19.491-68.519 50.536-88.071 88.112-25.55 49.102-30.45 105.216-13.796 158.004 2.105 6.67 8.265 10.934 14.906 10.934 1.558 0 3.143-.235 4.708-.728 8.234-2.598 12.803-11.379 10.206-19.614-14.141-44.823-9.981-92.47 11.714-134.164 20.931-40.225 57.829-71.288 100.508-86.053-1.556-.539-3.123-1.062-4.704-1.561z" fill="#d5474f" data-original="#ff656f" style="" class=""/><path d="m106.677 506.217c-16.654-52.788-11.754-108.902 13.796-158.005 19.052-36.613 49.85-67.021 85.27-86.586-4.667-2.073-9.232-4.297-13.682-6.677-36.595 19.491-68.519 50.536-88.071 88.112-25.55 49.103-30.45 105.216-13.796 158.005 2.105 6.67 8.265 10.934 14.906 10.934 1.442 0 2.907-.211 4.358-.633-1.208-1.486-2.169-3.213-2.781-5.15z" fill="#d5474f" data-original="#ff4756" style="" class=""/><g><path d="m399.046 104.663h-54.93c-4.267 0-7.726-3.459-7.726-7.726s3.459-7.726 7.726-7.726h54.93c4.267 0 7.726 3.459 7.726 7.726s-3.458 7.726-7.726 7.726z" fill="#edce7b" data-original="#dfebfa" style="" class=""/></g><g><path d="m351.738 55.135h-243.127c-4.267 0-7.726-3.459-7.726-7.726s3.459-7.726 7.726-7.726h243.127c4.267 0 7.726 3.459 7.726 7.726s-3.459 7.726-7.726 7.726z" fill="#edce7b" data-original="#dfebfa" style="" class=""/></g><g><path d="m291.952 104.663h-183.624c-4.267 0-7.726-3.459-7.726-7.726s3.459-7.726 7.726-7.726h183.624c4.267 0 7.726 3.459 7.726 7.726s-3.459 7.726-7.726 7.726z" fill="#edce7b" data-original="#dfebfa" style="" class=""/></g><g><path d="m338.633 154.191h-215.894c-4.267 0-7.726-3.459-7.726-7.726s3.459-7.726 7.726-7.726h215.893c4.267 0 7.726 3.459 7.726 7.726.001 4.267-3.458 7.726-7.725 7.726z" fill="#edce7b" data-original="#dfebfa" style="" class=""/></g><g><path d="m308.985 203.72h-152.384c-4.267 0-7.726-3.459-7.726-7.726s3.459-7.726 7.726-7.726h152.384c4.267 0 7.726 3.459 7.726 7.726 0 4.266-3.459 7.726-7.726 7.726z" fill="#edce7b" data-original="#dfebfa" style="" class=""/></g><path d="m378.801 53.165c-1.375-14.076-4.222-28.216-8.644-42.23-2.598-8.235-11.377-12.802-19.614-10.207-8.234 2.598-12.803 11.379-10.206 19.614 3.735 11.84 6.143 23.785 7.315 35.677.793 8.049 7.458 14.235 15.546 14.235h.059c9.205.001 16.439-7.928 15.544-17.089z" fill="#d5474f" data-original="#ff656f" style="" class=""/><path d="m363.448 56.02c-1.172-11.892-3.58-23.838-7.315-35.677-2.237-7.09.849-14.575 7.004-18.18-3.678-2.151-8.209-2.815-12.594-1.434-8.234 2.598-12.803 11.379-10.206 19.614 3.735 11.84 6.143 23.785 7.315 35.677.793 8.049 7.458 14.235 15.546 14.235h.059c2.891 0 5.587-.783 7.898-2.14-4.219-2.479-7.194-6.892-7.707-12.095z" fill="#d5474f" data-original="#ff4756" style="" class=""/><path d="m353.025 121.673c-6.57 0-12.481 4.095-14.68 10.286-17.337 48.804-56.923 90.496-109.199 108.601 1.557.539 3.123 1.063 4.704 1.561 12.47 3.934 24.298 8.956 35.433 14.91 46.347-24.779 81.551-66.912 98.508-114.623 3.596-10.12-4.026-20.735-14.766-20.735z" fill="#d5474f" data-original="#ff656f" style="" class=""/><path d="m349.431 142.003c2.199-6.191 8.11-10.286 14.68-10.286 1.285 0 2.524.156 3.706.441-2.099-5.958-7.78-10.485-14.793-10.485-6.57 0-12.481 4.095-14.68 10.286-17.337 48.804-56.923 90.496-109.199 108.601 1.557.539 3.123 1.063 4.704 1.561 5.042 1.591 9.974 3.368 14.803 5.304 48.096-19.502 84.387-59.276 100.779-105.422z" fill="#d5474f" data-original="#ff4756" style="" class=""/><path d="m415.874 70.255h-.015c-8.276 0-15.039 6.458-15.597 14.716-.421 6.232-1.174 12.413-2.246 18.517-1.671 9.507 5.761 18.185 15.413 18.185 7.578 0 14.082-5.433 15.394-12.897 1.265-7.198 2.154-14.486 2.65-21.835.609-9.026-6.552-16.686-15.599-16.686z" fill="#d5474f" data-original="#ff656f" style="" class=""/><path d="m413.812 103.488c1.073-6.104 1.825-12.285 2.246-18.517.364-5.39 3.381-9.999 7.727-12.56-2.317-1.364-5.015-2.156-7.911-2.156h-.015c-8.277 0-15.04 6.458-15.597 14.716-.421 6.232-1.174 12.413-2.246 18.517-1.671 9.506 5.761 18.186 15.413 18.186 2.862 0 5.569-.777 7.902-2.143-5.39-3.152-8.689-9.388-7.519-16.043z" fill="#d5474f" data-original="#ff4756" style="" class=""/><path d="m234.88 241.091c-92.529-29.193-144.058-128.22-114.866-220.749 2.598-8.234-1.972-17.016-10.206-19.614-8.237-2.597-17.015 1.972-19.614 10.206-34.379 108.972 26.307 225.596 135.278 259.976 92.529 29.192 144.057 128.219 114.865 220.748-2.598 8.234 1.972 17.016 10.206 19.614 1.565.494 3.15.728 4.708.728 6.641 0 12.801-4.265 14.906-10.934 34.379-108.972-26.306-225.596-135.277-259.975z" fill="#045c8c" data-original="#60b8fe" style="" class=""/><path d="m358.108 491.658c29.192-92.529-22.336-200.828-114.865-230.02-108.971-34.379-169.657-141.732-135.278-250.704 1.09-3.452 3.273-6.247 6.039-8.153-1.257-.869-2.662-1.569-4.196-2.053-8.237-2.597-17.015 1.972-19.614 10.206-34.379 108.972 26.307 225.596 135.278 259.976 92.529 29.192 144.057 128.219 114.865 220.748-2.598 8.234 1.972 17.016 10.206 19.614 1.565.493 3.15.728 4.708.728 3.204 0 6.292-1.001 8.871-2.778-5.493-3.798-8.128-10.862-6.014-17.564z" fill="#045c8c" data-original="#23a8fe" style="" class=""/></g></g></svg>
