<svg width="501" height="581" viewBox="0 0 501 581" fill="none" xmlns="http://www.w3.org/2000/svg">
<path d="M26.0179 305.558C26.0179 323.299 24.5987 329.077 20.9493 333.334C16.8876 336.992 11.6147 339.014 6.14893 339.011L7.56814 349.149C16.0419 349.263 24.2641 346.27 30.6811 340.735C34.1338 336.524 36.7031 331.661 38.2357 326.436C39.7684 321.212 40.233 315.731 39.6018 310.323V243.214H26.0179V305.153V305.558Z" fill="white"/>
<path d="M127.324 297.562C127.324 305.165 127.324 311.957 127.933 317.837H115.869L115.058 305.774C112.535 310.042 108.927 313.566 104.6 315.987C100.273 318.409 95.3824 319.642 90.4248 319.56C78.6657 319.56 64.6763 313.174 64.6763 287.121V243.835H78.2602V284.384C78.2602 298.475 82.6192 307.902 94.8853 307.902C97.4089 307.93 99.9124 307.452 102.249 306.499C104.586 305.546 106.709 304.136 108.494 302.351C110.278 300.567 111.688 298.444 112.642 296.107C113.595 293.77 114.072 291.267 114.045 288.743V243.328H127.629V297.157L127.324 297.562Z" fill="white"/>
<path d="M153.073 267.951C153.073 258.524 153.073 250.819 152.465 243.825H164.63L165.238 256.496C167.948 251.918 171.85 248.161 176.527 245.626C181.204 243.091 186.482 241.873 191.797 242.101C209.842 242.101 223.426 257.206 223.426 279.71C223.426 306.27 207.105 319.449 189.466 319.449C184.951 319.65 180.461 318.683 176.43 316.641C172.398 314.598 168.962 311.55 166.454 307.791V348.34H153.073V268.255V267.951ZM166.454 287.719C166.491 289.558 166.695 291.39 167.063 293.193C168.213 297.694 170.831 301.683 174.503 304.529C178.175 307.375 182.691 308.915 187.337 308.906C201.63 308.906 210.044 297.248 210.044 280.319C210.044 265.518 202.137 252.847 187.844 252.847C182.187 253.31 176.894 255.821 172.956 259.908C169.019 263.995 166.707 269.378 166.454 275.047V287.719Z" fill="white"/>
<path d="M247.628 243.756L263.949 287.448C265.673 292.314 267.497 298.193 268.714 302.552C270.133 298.092 271.654 292.415 273.478 287.144L288.279 243.756H302.572L282.298 296.47C272.161 321.813 265.977 334.89 256.65 342.797C251.953 347.088 246.226 350.091 240.025 351.515L236.68 340.161C241.016 338.737 245.041 336.501 248.541 333.572C253.486 329.542 257.411 324.402 259.996 318.569C260.549 317.559 260.926 316.462 261.111 315.325C260.996 314.102 260.688 312.904 260.199 311.777L232.625 243.553H247.426L247.628 243.756Z" fill="white"/>
<path d="M338.632 222.49V243.778H358.096V253.916H338.632V293.856C338.632 302.98 341.268 308.251 348.77 308.251C351.434 308.295 354.092 307.988 356.677 307.339L357.285 317.476C353.41 318.819 349.321 319.437 345.222 319.301C342.507 319.471 339.788 319.051 337.251 318.072C334.713 317.092 332.418 315.574 330.523 313.624C326.393 308.101 324.51 301.219 325.251 294.363V253.814H313.695V243.677H325.454V225.633L338.632 222.49Z" fill="white"/>
<path d="M383.118 283.168C382.843 286.606 383.318 290.063 384.509 293.299C385.701 296.536 387.581 299.475 390.02 301.914C392.459 304.353 395.398 306.233 398.634 307.424C401.871 308.616 405.327 309.091 408.765 308.816C415.719 308.971 422.628 307.658 429.04 304.963L431.372 315.101C423.503 318.342 415.042 319.896 406.535 319.662C401.576 320.002 396.602 319.265 391.955 317.501C387.307 315.738 383.096 312.99 379.61 309.447C376.124 305.903 373.446 301.647 371.759 296.971C370.073 292.295 369.417 287.31 369.838 282.357C369.838 260.055 383.118 242.417 404.812 242.417C429.141 242.417 435.224 263.705 435.224 277.289C435.354 279.382 435.354 281.481 435.224 283.574H382.814L383.118 283.168ZM422.856 273.031C423.247 270.321 423.053 267.558 422.286 264.929C421.52 262.301 420.199 259.867 418.412 257.792C416.625 255.717 414.414 254.049 411.928 252.9C409.442 251.752 406.739 251.15 404.001 251.135C398.431 251.538 393.213 254.006 389.368 258.057C385.524 262.108 383.331 267.448 383.22 273.031H422.856Z" fill="white"/>
<path d="M455.835 266.809C455.835 258.091 455.835 250.589 455.227 243.696H467.391V258.192H467.999C469.276 253.718 471.914 249.752 475.548 246.846C479.181 243.939 483.629 242.236 488.274 241.972C489.553 241.804 490.848 241.804 492.126 241.972V254.644C490.577 254.464 489.012 254.464 487.463 254.644C482.861 254.822 478.482 256.669 475.142 259.841C471.803 263.012 469.733 267.291 469.317 271.877C468.938 273.951 468.735 276.054 468.709 278.162V317.596H455.328V266.91L455.835 266.809Z" fill="white"/>
<path d="M449.882 40.1435C450.298 46.9538 448.678 53.7338 445.227 59.6198C441.777 65.506 436.652 70.2317 430.506 73.1951C424.36 76.1584 417.471 77.2252 410.717 76.2596C403.963 75.294 397.649 72.3397 392.579 67.7729C387.51 63.2063 383.915 57.2339 382.252 50.6167C380.589 43.9996 380.933 37.037 383.241 30.6163C385.549 24.1955 389.716 18.607 395.211 14.5627C400.706 10.5184 407.281 8.2015 414.097 7.90701C418.567 7.66108 423.04 8.30108 427.261 9.79021C431.482 11.2793 435.367 13.5882 438.693 16.5841C442.019 19.5799 444.719 23.2036 446.639 27.2468C448.56 31.29 449.661 35.6729 449.882 40.1435Z" fill="white"/>
<path d="M249.432 437.15C158.197 437.15 78.0111 404.406 36.5498 356.052C52.6369 399.552 81.6643 437.08 119.725 463.585C157.785 490.09 203.053 504.297 249.432 504.297C295.812 504.297 341.078 490.09 379.139 463.585C417.199 437.08 446.227 399.552 462.314 356.052C420.955 404.406 341.072 437.15 249.432 437.15Z" fill="white"/>
<path d="M249.432 122.712C340.667 122.712 420.853 155.456 462.314 203.81C446.227 160.31 417.199 122.782 379.139 96.2772C341.078 69.7727 295.812 55.5642 249.432 55.5642C203.053 55.5642 157.785 69.7727 119.725 96.2772C81.6643 122.782 52.6369 160.31 36.5498 203.81C78.0111 155.354 157.792 122.712 249.432 122.712Z" fill="white"/>
<path d="M123.838 531.25C124.374 539.828 122.343 548.371 118.005 555.791C113.668 563.21 107.219 569.171 99.4819 572.913C91.7445 576.655 83.0683 578.009 74.5588 576.802C66.0492 575.595 58.0915 571.882 51.6996 566.137C45.3076 560.391 40.7707 552.873 38.667 544.54C36.5633 536.206 36.988 527.435 39.887 519.344C42.7859 511.253 48.0279 504.208 54.945 499.107C61.8622 494.006 70.1414 491.08 78.7277 490.701C84.3525 490.4 89.9814 491.21 95.293 493.085C100.605 494.96 105.495 497.864 109.684 501.629C113.873 505.395 117.279 509.949 119.708 515.031C122.137 520.114 123.54 525.625 123.838 531.25Z" fill="white"/>
<path d="M46.92 111.693C42.0039 111.828 37.1574 110.508 32.99 107.896C28.8226 105.285 25.5204 101.5 23.4986 97.0167C21.4768 92.5335 20.8256 87.5527 21.6271 82.7005C22.4286 77.8483 24.6468 73.3414 28.0029 69.7466C31.359 66.1518 35.7031 63.6295 40.4889 62.4971C45.2746 61.3646 50.2884 61.6725 54.8998 63.382C59.511 65.0915 63.5139 68.1262 66.4049 72.1046C69.296 76.0831 70.9462 80.8276 71.148 85.7413C71.3401 92.3856 68.9036 98.8376 64.3675 103.696C59.8314 108.555 53.5617 111.429 46.92 111.693Z" fill="white"/>
</svg>
