<?xml version="1.0"?>
<svg xmlns="http://www.w3.org/2000/svg" xmlns:xlink="http://www.w3.org/1999/xlink" xmlns:svgjs="http://svgjs.com/svgjs" version="1.1" width="512" height="512" x="0" y="0" viewBox="0 0 512 512" style="enable-background:new 0 0 512 512" xml:space="preserve" class=""><g>
<g xmlns="http://www.w3.org/2000/svg">
	<g>
		<path d="M62.026,300h-47c-8.284,0-15,6.714-15,15v182c0,8.284,6.716,15,15,15h47c16.569,0,30-13.433,30-30V330    C92.026,313.431,78.595,300,62.026,300z" fill="#ffffff" data-original="#000000" style=""/>
	</g>
</g>
<g xmlns="http://www.w3.org/2000/svg">
	<g>
		<path d="M257.577,150c2.743,62.642,21.391,120,29.449,120c8.058,0,26.706-57.358,29.449-120H257.577z" fill="#ffffff" data-original="#000000" style=""/>
	</g>
</g>
<g xmlns="http://www.w3.org/2000/svg">
	<g>
		<path d="M323.821,5.74c13.522,30.575,21.233,75.579,22.852,114.26h73.837C414.339,65.156,375.602,20.532,323.821,5.74z" fill="#ffffff" data-original="#000000" style=""/>
	</g>
</g>
<g xmlns="http://www.w3.org/2000/svg">
	<g>
		<path d="M287.026,0c-8.058,0-26.706,57.358-29.449,120h58.898C313.732,57.358,295.085,0,287.026,0z" fill="#ffffff" data-original="#000000" style=""/>
	</g>
</g>
<g xmlns="http://www.w3.org/2000/svg">
	<g>
		<path d="M346.673,150c-1.619,38.681-9.329,83.685-22.852,114.26c51.78-14.791,90.518-59.416,96.689-114.26H346.673z" fill="#ffffff" data-original="#000000" style=""/>
	</g>
</g>
<g xmlns="http://www.w3.org/2000/svg">
	<g>
		<path d="M227.379,150h-73.837c6.171,54.844,44.908,99.468,96.689,114.26C236.709,233.685,228.998,188.681,227.379,150z" fill="#ffffff" data-original="#000000" style=""/>
	</g>
</g>
<g xmlns="http://www.w3.org/2000/svg">
	<g>
		<path d="M153.542,120h73.837c1.619-38.681,9.329-83.685,22.852-114.26C198.451,20.532,159.713,65.156,153.542,120z" fill="#ffffff" data-original="#000000" style=""/>
	</g>
</g>
<g xmlns="http://www.w3.org/2000/svg">
	<g>
		<path d="M499.727,305.7c-12.301-9-29.401-7.2-39.6,3.9l-81,100.8c-5.7,6-16.5,9.6-22.2,9.6h-116.1c-8.284,0-15-6.716-15-15    s6.715-15,15-15h106.199c17.311,0,31.321-14.86,29.901-32.454C375.662,341.868,362.145,330,346.416,330h-77.99    c-3,0-7.2-1.5-9.901-3.6c-23.154-20.349-43.459-32.1-77.1-32.1c-20.941,0-41.618,6.634-59.399,19.208V502.69    c17.077,5.839,35.028,9.309,53.101,9.309h171.899c29.403,0,55.653-15.207,72.001-37c5.556-8.054,81.499-119.209,86.999-127    C515.926,334.799,513.226,315.599,499.727,305.7z" fill="#ffffff" data-original="#000000" style=""/>
	</g>
</g>
<g xmlns="http://www.w3.org/2000/svg">
</g>
<g xmlns="http://www.w3.org/2000/svg">
</g>
<g xmlns="http://www.w3.org/2000/svg">
</g>
<g xmlns="http://www.w3.org/2000/svg">
</g>
<g xmlns="http://www.w3.org/2000/svg">
</g>
<g xmlns="http://www.w3.org/2000/svg">
</g>
<g xmlns="http://www.w3.org/2000/svg">
</g>
<g xmlns="http://www.w3.org/2000/svg">
</g>
<g xmlns="http://www.w3.org/2000/svg">
</g>
<g xmlns="http://www.w3.org/2000/svg">
</g>
<g xmlns="http://www.w3.org/2000/svg">
</g>
<g xmlns="http://www.w3.org/2000/svg">
</g>
<g xmlns="http://www.w3.org/2000/svg">
</g>
<g xmlns="http://www.w3.org/2000/svg">
</g>
<g xmlns="http://www.w3.org/2000/svg">
</g>
</g></svg>
