<?xml version="1.0"?>
<svg xmlns="http://www.w3.org/2000/svg" xmlns:xlink="http://www.w3.org/1999/xlink" xmlns:svgjs="http://svgjs.com/svgjs" version="1.1" width="512" height="512" x="0" y="0" viewBox="0 0 512 512" style="enable-background:new 0 0 512 512" xml:space="preserve"><g><g xmlns="http://www.w3.org/2000/svg" id="OUTLINE"><path d="M446.65625,387.5625l-.33008-.49512a40.06062,40.06062,0,0,0-51.1709-13.58886l-99.41406,49.707-17.79492-7.627A40.06354,40.06354,0,0,0,312,376a8.00039,8.00039,0,0,0-8-8H227.58594a40.07876,40.07876,0,0,0-25.60742,9.27148l-28.7129,23.92676a24.1077,24.1077,0,0,1-17.876,5.42969l-90.55176-9.53125-1.67578,15.91211L153.71387,422.54a40.20757,40.20757,0,0,0,29.79492-9.05078l28.71191-23.92578A24.04558,24.04558,0,0,1,227.58594,384h67.043A24.04166,24.04166,0,0,1,272,400H240a8.00015,8.00015,0,0,0-3.15137,15.35352l56,24a8.00068,8.00068,0,0,0,6.72949-.19825l102.7334-51.36621a24.05082,24.05082,0,0,1,25.42676,2.49317l-134.05371,84.666a24.034,24.034,0,0,1-16.21,3.4668l-96.5-13.78613a40.011,40.011,0,0,0-9.63477-.20215L63.2041,475.24023l1.5918,15.91993,108.13672-10.81348a24.10164,24.10164,0,0,1,5.78027.12207l96.499,13.78613a40.03245,40.03245,0,0,0,27.01563-5.77929l142.04394-89.71192a7.99981,7.99981,0,0,0,2.38477-11.20117Z" fill="#ffffff" data-original="#000000" style=""/><path d="M108.11523,270.99316l144,80a7.99788,7.99788,0,0,0,7.76954,0l144-80A7.99986,7.99986,0,0,0,408,264V104a7.99986,7.99986,0,0,0-4.11523-6.99316l-144-80a8.00128,8.00128,0,0,0-7.76954,0l-144,80A7.99986,7.99986,0,0,0,104,104V264A7.99986,7.99986,0,0,0,108.11523,270.99316ZM120,108.707,256,33.15137,392,108.707V259.293L256,334.84863,120,259.293Z" fill="#ffffff" data-original="#000000" style=""/><path d="M256,73.15137l104,57.77832V168h16V126.22266a7.99986,7.99986,0,0,0-4.11523-6.99317l-112-62.22265a8.00128,8.00128,0,0,0-7.76954,0l-72,40,7.76954,13.98632Z" fill="#ffffff" data-original="#000000" style=""/><path d="M349.65723,237.65723l24-24a8.00122,8.00122,0,0,0,0-11.31446l-24-24a8.003,8.003,0,0,0-11.31446,0L328,188.68652l-10.34277-10.34375a8.003,8.003,0,0,0-11.31446,0L296,188.68652l-10.34277-10.34375A8.00235,8.00235,0,0,0,280,176H237.96a56,56,0,1,0,0,64H344A8.00235,8.00235,0,0,0,349.65723,237.65723ZM233.57812,224a8.00044,8.00044,0,0,0-6.9248,3.99414,40,40,0,1,1,0-39.98828A8.00044,8.00044,0,0,0,233.57812,192h43.1084l13.65625,13.65723a8.003,8.003,0,0,0,11.31446,0L312,195.31348l10.34277,10.34375a8.003,8.003,0,0,0,11.31446,0L344,195.31348,356.68652,208l-16,16Z" fill="#ffffff" data-original="#000000" style=""/><path d="M192,184a24,24,0,1,0,24,24A24.0275,24.0275,0,0,0,192,184Zm0,32a8,8,0,1,1,8-8A8.00917,8.00917,0,0,1,192,216Z" fill="#ffffff" data-original="#000000" style=""/></g></g></svg>
