<?xml version="1.0"?>
<svg xmlns="http://www.w3.org/2000/svg" xmlns:xlink="http://www.w3.org/1999/xlink" xmlns:svgjs="http://svgjs.com/svgjs" version="1.1" width="512" height="512" x="0" y="0" viewBox="0 0 512 512" style="enable-background:new 0 0 512 512" xml:space="preserve" class=""><g><g xmlns="http://www.w3.org/2000/svg"><path d="m346 0c-37.792 0-73.396 12.373-102.963 35.782-27.184 21.522-47.137 51.347-56.637 84.456-103.633 5.023-186.4 90.906-186.4 195.762 0 108.075 87.925 196 196 196 104.856 0 190.739-82.767 195.762-186.4 33.109-9.499 62.932-29.452 84.455-56.636 23.41-29.568 35.783-65.172 35.783-102.964 0-91.533-74.467-166-166-166zm-150 497c-99.804 0-181-81.196-181-181s81.196-181 181-181 181 81.196 181 181-81.196 181-181 181zm195.896-187.094c-3.17-103.241-86.561-186.632-189.802-189.802 19.784-62.347 77.646-105.104 143.906-105.104 83.262 0 151 67.738 151 151 0 66.26-42.756 124.122-105.104 143.906z" fill="#ffffff" data-original="#000000" style=""/><path d="m196 150c-91.532 0-166 74.468-166 166s74.468 166 166 166 166-74.468 166-166-74.468-166-166-166zm0 317c-83.262 0-151-67.738-151-151s67.738-151 151-151 151 67.738 151 151-67.738 151-151 151z" fill="#ffffff" data-original="#000000" style=""/><path d="m196.415 186.675c-.562-4.104-4.334-6.965-8.448-6.413-4.104.562-6.975 4.344-6.413 8.448 10.048 73.404 68.332 131.688 141.736 141.736.346.047.688.07 1.027.07 3.69 0 6.906-2.726 7.421-6.483.562-4.104-2.31-7.887-6.413-8.448-66.762-9.139-119.771-62.148-128.91-128.91z" fill="#ffffff" data-original="#000000" style=""/></g></g></svg>
