<?xml version="1.0"?>
<svg xmlns="http://www.w3.org/2000/svg" xmlns:xlink="http://www.w3.org/1999/xlink" xmlns:svgjs="http://svgjs.com/svgjs" version="1.1" width="512" height="512" x="0" y="0" viewBox="0 0 511.989 511.989" style="enable-background:new 0 0 512 512" xml:space="preserve" class=""><g><g xmlns="http://www.w3.org/2000/svg"><path d="m507.429 133.646-52.841-91.522c-4.553-7.885-11.903-13.526-20.698-15.883s-17.981-1.147-25.866 3.406c-7.886 4.552-13.526 11.903-15.883 20.698-.504 1.88-.834 3.778-1.014 5.677l-11.774 6.798c-5.999-3.739-12.522-6.561-19.449-8.411l-74.422-19.948c-8.532-2.287-17.441-1.115-25.073 3.296-7.64 4.403-13.107 11.53-15.396 20.066-2.287 8.525-1.116 17.429 3.296 25.072 4.414 7.644 11.542 13.11 20.065 15.388l14.18 3.803-10.964 6.328-68.841-39.742c-20.393-11.775-44.768-12.868-66.008-3.144l-15.852-9.155c-.925-11.073-7.218-21.139-16.91-26.729-16.279-9.393-37.166-3.797-46.562 12.475l-6.73 11.65c-2.072 3.587-.844 8.174 2.743 10.246 3.585 2.072 8.173.844 10.246-2.742l6.73-11.651c5.263-9.112 16.961-12.245 26.078-6.984 5.883 3.394 9.538 9.74 9.538 16.563 0 3.334-.882 6.62-2.555 9.51l-52.841 91.521c-5.261 9.116-16.959 12.253-26.071 6.996-5.894-3.408-9.555-9.752-9.555-16.559 0-3.323.887-6.614 2.565-9.52l31.19-54.02c2.071-3.587.842-8.174-2.745-10.245-3.588-2.071-8.174-.842-10.245 2.745l-31.189 54.02c-2.994 5.182-4.576 11.068-4.576 17.02 0 12.146 6.532 23.466 17.051 29.546 5.354 3.089 11.205 4.557 16.981 4.557 4.936 0 9.811-1.085 14.282-3.132l11.796 6.815c-.234 7.082.582 14.14 2.436 21.042l19.939 74.434c2.287 8.534 7.759 15.66 15.393 20.059 5.083 2.943 10.73 4.447 16.458 4.447 2.873 0 5.766-.378 8.618-1.143 17.599-4.718 28.08-22.872 23.364-40.468l-3.798-14.176 19.59 11.31v83.823c0 23.545 11.242 45.201 30.28 58.739v18.306c-8.868 6.161-14.689 16.415-14.689 28.007 0 18.796 15.292 34.088 34.087 34.088h105.682c18.796 0 34.087-15.292 34.087-34.088 0-11.464-5.694-21.617-14.396-27.799v-13.618c6.256-3.34 11.964-7.577 17.011-12.633l8.71-8.7c2.93-2.927 2.933-7.676.006-10.606-2.927-2.932-7.675-2.933-10.607-.006l-8.717 8.708c-4.928 4.936-10.639 8.881-16.975 11.727-2.694 1.21-4.428 3.888-4.428 6.842v12.329c-1.534-.212-3.099-.331-4.69-.331h-105.683c-1.491 0-2.957.107-4.398.293v-16.53c0-2.773-1.505-5.194-3.744-6.49-16.623-10.553-26.536-28.564-26.536-48.238v-136.767c0-7.878 6.242-14.451 13.913-14.652 3.992-.098 7.712 1.379 10.508 4.186 2.696 2.696 4.182 6.276 4.189 10.085l.001 70.43c0 4.142 3.358 7.5 7.5 7.5s7.5-3.358 7.5-7.5l-.001-89.079c0-7.889 6.418-14.307 14.307-14.307s14.307 6.418 14.307 14.307v89.079c0 4.142 3.358 7.5 7.5 7.5 4.143 0 7.5-3.358 7.5-7.5v-99.422c0-7.889 6.418-14.307 14.307-14.307s14.307 6.418 14.307 14.307l-.007 99.418c0 4.142 3.357 7.5 7.5 7.5s7.5-3.358 7.5-7.5l.007-89.221c.036-3.774 1.514-7.308 4.202-9.983 2.693-2.7 6.28-4.187 10.101-4.187 7.891 0 14.31 6.419 14.31 14.31v134.08c0 3.033 1.827 5.768 4.63 6.929s6.028.519 8.174-1.626l23.183-23.183c3.405-3.409 7.934-5.286 12.75-5.286 4.819 0 9.351 1.878 12.761 5.288 3.407 3.408 5.283 7.938 5.283 12.757s-1.876 9.35-5.283 12.757l-24.67 24.67c-2.929 2.929-2.929 7.678 0 10.606 1.465 1.464 3.385 2.197 5.304 2.197s3.839-.732 5.304-2.197l24.67-24.67c6.239-6.241 9.676-14.538 9.676-23.363s-3.437-17.122-9.677-23.363c-6.243-6.244-14.542-9.682-23.367-9.682-8.826 0-17.123 3.439-23.359 9.682l-10.377 10.377v-26.946l60.209-34.769c20.392-11.774 33.527-32.337 35.733-55.592l15.828-9.142c1.834.863 3.755 1.577 5.755 2.113 2.938.787 5.917 1.176 8.879 1.176 5.906 0 11.736-1.549 16.988-4.582 16.274-9.399 21.871-30.287 12.474-46.565zm-189.959 300.102c10.524 0 19.087 8.563 19.087 19.088s-8.562 19.088-19.087 19.088h-105.682c-10.525 0-19.087-8.563-19.087-19.088s8.562-19.088 19.087-19.088zm-12.68-265.313c-4.839-9.542-14.739-16.1-26.15-16.1-4.65 0-9.047 1.093-12.956 3.028l-26.956-15.562c-3.588-2.072-8.174-.842-10.245 2.745s-.842 8.174 2.745 10.245l22.709 13.111c-.527.825-1.015 1.677-1.459 2.555-4.879-3.628-10.919-5.779-17.452-5.779-13.928 0-25.61 9.77-28.573 22.815-4.71-2.829-10.142-4.268-15.823-4.125-15.727.412-28.521 13.711-28.521 29.647v35.624l-27.771-16.032c-2.628-1.517-5.909-1.302-8.316.545-2.406 1.847-3.463 4.961-2.679 7.891l8.484 31.665c2.575 9.608-3.148 19.521-12.759 22.097-4.659 1.25-9.517.611-13.689-1.805-4.172-2.404-7.158-6.294-8.407-10.953l-19.94-74.438c-1.81-6.736-2.371-13.653-1.669-20.557.299-2.937-1.153-5.776-3.709-7.253l-10.67-6.164c.952-1.224 1.833-2.527 2.63-3.908l52.835-91.512c.74-1.278 1.392-2.6 1.956-3.956l14.294 8.256c2.198 1.27 5.022 1.322 7.267.135 17.497-9.252 38.161-8.874 55.28 1.01l118.442 68.377c4.662 2.694 7.38 7.618 7.407 12.658-5.957.231-11.599 2.228-16.305 5.74zm132.003 11.073c-2.383 1.252-4.008 3.751-4.013 6.63-.826 19.673-11.47 37.269-28.513 47.109l-52.708 30.437v-71.705c0-11.232-6.354-21.003-15.652-25.922 1.277-11.388-4.307-22.993-14.715-29.007l-34.601-19.975 19.14-11.047c2.627-1.516 4.082-4.466 3.687-7.473-.395-3.008-2.562-5.481-5.492-6.267l-31.672-8.495c-4.655-1.245-8.546-4.227-10.954-8.399-2.408-4.171-3.048-9.031-1.799-13.687 1.25-4.664 4.232-8.554 8.405-10.959 4.169-2.409 9.031-3.048 13.692-1.799l74.429 19.95c6.766 1.807 13.033 4.777 18.629 8.828 2.396 1.735 5.588 1.899 8.148.42l10.677-6.165c.589 1.442 1.273 2.856 2.065 4.228l52.84 91.522c.742 1.285 1.565 2.503 2.449 3.664zm50.658-12.287c-4.416 2.549-9.561 3.226-14.483 1.907-4.926-1.32-9.042-4.478-11.591-8.894l-52.84-91.522c-2.55-4.416-3.227-9.559-1.907-14.484s4.478-9.041 8.894-11.59c2.941-1.698 6.205-2.565 9.513-2.565 1.658 0 3.327.218 4.972.659 4.925 1.32 9.041 4.478 11.59 8.894l52.841 91.522c5.26 9.113 2.126 20.81-6.989 26.073z" fill="#ffffff" data-original="#000000" style="" class=""/></g></g></svg>
