<?xml version="1.0"?>
<svg xmlns="http://www.w3.org/2000/svg" xmlns:xlink="http://www.w3.org/1999/xlink" xmlns:svgjs="http://svgjs.com/svgjs" version="1.1" width="512" height="512" x="0" y="0" viewBox="0 0 512 512" style="enable-background:new 0 0 512 512" xml:space="preserve"><g>
<g xmlns="http://www.w3.org/2000/svg" id="XMLID_831_">
	<g id="XMLID_817_">
		<g id="XMLID_826_">
			<path id="XMLID_830_" d="M426.884,415.138H237.667c-5.523,0-10-4.477-10-10s4.477-10,10-10h189.217     c35.905,0,65.116-29.211,65.116-65.116c0-30.233-21.391-56.952-50.863-63.531c-2.681-0.599-4.997-2.273-6.406-4.63     c-1.408-2.357-1.786-5.19-1.042-7.834c2.664-9.481,4.015-19.325,4.015-29.258c0-59.5-48.407-107.907-107.908-107.907     c-55.423,0-101.557,41.504-107.313,96.542c-0.393,3.753-2.865,6.966-6.392,8.307c-3.527,1.341-7.509,0.583-10.296-1.962     c-14.187-12.953-34.646-16.18-52.122-8.22c-18.912,8.613-30.051,28.269-27.718,48.912c0.404,3.574-1.143,7.09-4.05,9.207     c-2.908,2.118-6.729,2.51-10.006,1.028c-8.464-3.827-17.475-5.767-26.782-5.767C49.211,264.907,20,294.118,20,330.022     s29.211,65.116,65.116,65.116h72.552c5.523,0,10,4.477,10,10s-4.477,10-10,10H85.116C38.183,415.138,0,376.956,0,330.022     s38.183-85.116,85.116-85.116c7.135,0,14.137,0.873,20.941,2.604c2.585-23.382,17.206-44.11,39.327-54.185     c19.499-8.881,41.62-7.94,59.962,1.815c5.926-24.967,19.292-47.688,38.583-65.171c23.556-21.35,54.051-33.108,85.868-33.108     c70.528,0,127.908,57.379,127.908,127.907c0,8.429-0.822,16.806-2.451,25.014c14.691,5.21,27.853,14.456,37.762,26.666     C505.257,291.533,512,310.56,512,330.022C512,376.956,473.817,415.138,426.884,415.138z" fill="#ffffff" data-original="#000000" style=""/>
		</g>
		<g id="XMLID_842_">
			<path id="XMLID_825_" d="M330.125,156.861c-0.016,0-0.03,0-0.045,0l-0.284,0c-5.523,0-10-4.477-10-10s4.477-10,10-10l0.373,0     c5.523,0.025,9.98,4.522,9.956,10.044C340.1,152.413,335.627,156.861,330.125,156.861z" fill="#ffffff" data-original="#000000" style=""/>
		</g>
		<g id="XMLID_820_">
			<path id="XMLID_821_" d="M407.704,234.768c-5.523,0-10-4.477-10-10c0-24.152-13-46.686-33.926-58.809     c-4.779-2.768-6.409-8.887-3.64-13.666c2.768-4.779,8.887-6.408,13.666-3.64c27.079,15.687,43.901,44.852,43.901,76.114     C417.704,230.291,413.227,234.768,407.704,234.768z" fill="#ffffff" data-original="#000000" style=""/>
		</g>
		<g id="XMLID_818_">
			<path id="XMLID_819_" d="M197.67,415.139c-2.64,0-5.21-1.07-7.07-2.93c-1.87-1.86-2.93-4.44-2.93-7.07     c0-2.63,1.06-5.21,2.93-7.07c1.86-1.86,4.44-2.93,7.07-2.93s5.21,1.07,7.07,2.93c1.86,1.86,2.93,4.44,2.93,7.07     c0,2.63-1.07,5.21-2.93,7.07C202.88,414.069,200.3,415.139,197.67,415.139z" fill="#ffffff" data-original="#000000" style=""/>
		</g>
	</g>
</g>















</g></svg>
