<?xml version="1.0"?>
<svg xmlns="http://www.w3.org/2000/svg" xmlns:xlink="http://www.w3.org/1999/xlink" xmlns:svgjs="http://svgjs.com/svgjs" version="1.1" width="512" height="512" x="0" y="0" viewBox="0 0 512 512.00102" style="enable-background:new 0 0 512 512" xml:space="preserve" class=""><g>
<g xmlns="http://www.w3.org/2000/svg" id="surface1">
<path d="M 469.601562 213.855469 C 469.601562 149.300781 417.378906 96.710938 352.957031 96.117188 C 339.144531 40.449219 288.539062 0 230.003906 0 C 160.152344 0 103.324219 56.828125 103.324219 126.679688 C 103.324219 127.28125 103.328125 127.882812 103.335938 128.488281 C 102.746094 128.476562 102.15625 128.472656 101.566406 128.472656 C 45.5625 128.472656 0 174.03125 0 230.035156 C 0 286.039062 45.5625 331.601562 101.566406 331.601562 L 112.960938 331.601562 L 112.960938 372.816406 C 94.894531 379.074219 81.882812 396.25 81.882812 416.417969 C 81.882812 441.855469 102.578125 462.550781 128.015625 462.550781 C 153.457031 462.550781 174.152344 441.855469 174.152344 416.417969 C 174.152344 396.25 161.136719 379.074219 143.070312 372.816406 L 143.070312 331.601562 L 219.746094 331.601562 L 219.746094 422.265625 C 201.679688 428.523438 188.664062 445.699219 188.664062 465.867188 C 188.664062 491.304688 209.359375 512 234.800781 512 C 260.238281 512 280.933594 491.304688 280.933594 465.867188 C 280.933594 445.699219 267.921875 428.523438 249.855469 422.265625 L 249.855469 331.601562 L 326.527344 331.601562 L 326.527344 372.816406 C 308.460938 379.074219 295.449219 396.25 295.449219 416.417969 C 295.449219 441.855469 316.144531 462.550781 341.582031 462.550781 C 367.023438 462.550781 387.71875 441.855469 387.71875 416.417969 C 387.71875 396.25 374.703125 379.074219 356.636719 372.816406 L 356.636719 331.496094 C 419.355469 328.976562 469.601562 277.179688 469.601562 213.855469 Z M 128.019531 432.445312 C 119.179688 432.445312 111.992188 425.253906 111.992188 416.417969 C 111.992188 407.578125 119.179688 400.390625 128.019531 400.390625 C 136.855469 400.390625 144.042969 407.578125 144.042969 416.417969 C 144.042969 425.253906 136.855469 432.445312 128.019531 432.445312 Z M 234.800781 481.890625 C 225.964844 481.890625 218.777344 474.703125 218.777344 465.867188 C 218.777344 457.027344 225.964844 449.839844 234.800781 449.839844 C 243.640625 449.839844 250.828125 457.027344 250.828125 465.867188 C 250.828125 474.703125 243.636719 481.890625 234.800781 481.890625 Z M 341.585938 432.445312 C 332.746094 432.445312 325.558594 425.253906 325.558594 416.417969 C 325.558594 407.578125 332.746094 400.390625 341.585938 400.390625 C 350.421875 400.390625 357.613281 407.578125 357.613281 416.417969 C 357.613281 425.253906 350.421875 432.445312 341.585938 432.445312 Z M 341.585938 432.445312 " style="" fill="#ffffff" data-original="#000000" class=""/>
</g>
</g></svg>
