<?xml version="1.0"?>
<svg xmlns="http://www.w3.org/2000/svg" xmlns:xlink="http://www.w3.org/1999/xlink" xmlns:svgjs="http://svgjs.com/svgjs" version="1.1" width="512" height="512" x="0" y="0" viewBox="0 0 512 512" style="enable-background:new 0 0 512 512" xml:space="preserve" class=""><g>
<g xmlns="http://www.w3.org/2000/svg">
	<g>
		<path d="M442.542,428.834l-0.126-0.018v-27.623c0-4.157-3.368-7.525-7.525-7.525c-4.157,0-7.525,3.368-7.525,7.525v25.436    l-12.641-1.836l-12.44-25.207c-4.561-9.247-17.772-9.26-22.344-0.001l-1.97,3.992v-26.182c0-4.157-3.368-7.525-7.525-7.525    c-4.157,0-7.525,3.368-7.525,7.525v48.062l-23.238,3.376c-10.211,1.484-14.295,14.042-6.905,21.251l9.807,9.558h-38.058    c3.133-3.055,1.103-1.075,9.806-9.558c0-0.001,0.001-0.001,0.001-0.002c7.367-7.156,3.341-19.76-6.906-21.249l-16.563-2.407    l-12.483-73.753l7.026-10.576l3.91,2.777c6.802,4.832,16.345,2.469,20.087-5.026c0-0.001,0-0.001,0-0.001l25.879-51.866    L394.2,310.8c2.077,0.889,33.164,14.825,33.164,51.758v3.52c0,4.157,3.368,7.525,7.525,7.525c4.157,0,7.525-3.368,7.525-7.525    v-3.52c0-47.66-40.792-64.979-42.529-65.693c-0.047-0.02-0.095-0.039-0.143-0.058l-97.573-37.787v-23.498    c15.565-12.007,26.325-29.932,28.894-50.381c18.739-1.07,32.588-16.153,32.588-34.009c0-8.282-3.017-16.187-8.385-22.317v-30.34    c0-47.955-34.134-89.312-81.164-98.336c-4.073-0.785-8.024,1.889-8.807,5.972c-0.784,4.08,1.89,8.024,5.972,8.807    c39.952,7.668,68.951,42.808,68.951,83.557v20.373c-2.733-0.902-5.594-1.46-8.539-1.677c0-8.189,0.682-5.999-25.429-34.062    l-0.001-0.001c-4.601-4.944-12.042-5.85-17.693-2.157c-27.846,18.191-61.681,27.507-93.148,25.721    c-5.344-0.304-8.049-0.092-12.398,3.532c-2.094,1.942-3.53,4.554-4.109,7.189c-2.553,0.263-6.025,1.013-8.864,2.049V98.473    c0-40.749,28.998-75.89,68.951-83.557c4.081-0.783,6.755-4.726,5.972-8.807c-0.782-4.08-4.729-6.759-8.807-5.972    c-47.03,9.025-81.164,50.381-81.164,98.336v31.129c-5.429,6.074-8.383,13.574-8.383,21.529c0,17.83,13.815,32.936,32.58,34.008    c2.532,20.361,13.268,39.132,30.538,51.567v22.316l-97.466,37.786c-0.047,0.019-0.094,0.037-0.141,0.057    c-1.737,0.714-42.529,18.033-42.529,65.693v66.257l-0.126,0.018c-4.727,0.687-8.581,3.936-10.057,8.478    c-1.477,4.543-0.269,9.437,3.152,12.772l20.129,19.62l-4.753,27.706c-0.807,4.707,1.093,9.377,4.957,12.185    c3.863,2.807,8.889,3.171,13.119,0.947l24.882-13.08l24.881,13.08c4.226,2.222,9.254,1.859,13.119-0.947    c3.866-2.808,5.764-7.477,4.956-12.186l-3.897-22.717h56.992l-3.897,22.718c-1.742,10.17,8.94,17.936,18.077,13.132l24.882-13.08    l24.881,13.08c4.226,2.222,9.254,1.859,13.119-0.947c3.866-2.808,5.764-7.477,4.956-12.186l-3.897-22.717h56.992l-3.897,22.718    c-1.742,10.17,8.94,17.936,18.077,13.132l24.882-13.08l24.881,13.08c9.133,4.803,19.82-2.961,18.076-13.133l-4.752-27.705    l20.13-19.621C456.838,442.879,452.753,430.318,442.542,428.834z M331.678,132.295c10.095,1.302,16.924,9.518,16.924,18.836    c0,9.386-6.874,17.553-16.924,18.843V132.295z M178.577,169.973c-10.034-1.288-16.924-9.431-16.924-18.843    c0-9.267,7.865-16.703,16.924-18.474V169.973z M321.191,282.525l-24.509,49.121c-2.974-2.112-27.28-19.376-29.841-21.195    l30.201-37.277L321.191,282.525z M266.432,343.467h-20.92l-6.702-10.086l17.161-12.188l17.162,12.188L266.432,343.467z     M273.089,411.576l-5.917-11.99c-4.571-9.266-17.779-9.253-22.344-0.001l-5.999,12.156l9.008-53.224h16.273L273.089,411.576z     M224.771,261.445v-16.329c9.602,3.996,20.301,6.124,31.342,6.124c10.815,0,21.555-2.387,31.008-6.664v16.933l-31.148,38.449    L224.771,261.445z M193.627,175.676c0-5.758,0-48.282,0-54.029c34.58,2.168,71.716-7.827,102.3-27.541    c12.051,12.948,18.744,19.896,20.702,22.352c0,6.482,0,51.936,0,59.217c0,33.321-27.166,60.514-60.515,60.514    C219.268,236.19,193.627,207.761,193.627,175.676z M214.864,273.189l30.207,37.286c-7.372,5.236-27.606,19.609-29.806,21.171    l-24.51-49.121L214.864,273.189z M147.612,459.877c-2.881,2.811-4.278,6.97-3.582,11.027l4.094,23.873l-21.44-11.271    c-3.629-1.908-7.964-1.908-11.595,0L93.65,494.778l4.095-23.873c0.692-4.042-0.647-8.165-3.583-11.027l-17.345-16.906    l23.975-3.483c4.027-0.588,7.548-3.113,9.377-6.815l10.719-21.719c11.332,22.96,10.819,22.042,11.478,23.046    c1.942,2.958,5.071,4.972,8.622,5.49l23.97,3.483L147.612,459.877z M169.414,459.644L169.414,459.644l9.807-9.559    c0-0.001,0.001-0.001,0.001-0.002c7.394-7.211,3.306-19.765-6.907-21.249l-23.235-3.376v-48.063c0-4.157-3.368-7.525-7.525-7.525    c-4.157,0-7.525,3.368-7.525,7.525v26.186l-1.972-3.996c-4.536-9.195-17.75-9.311-22.344-0.001l-12.44,25.208l-12.641,1.836    v-64.07c0-37.041,31.271-50.951,33.156-51.755l58.869-22.822l25.881,51.869c3.731,7.475,13.263,9.872,20.087,5.026l3.91-2.777    l7.027,10.576l-12.484,73.761l-16.507,2.399c-10.233,1.485-14.278,14.06-6.906,21.251l9.807,9.558H169.414z M282.725,459.877    c-2.887,2.817-4.277,6.976-3.582,11.027l4.094,23.873l-21.44-11.271c-3.629-1.908-7.964-1.908-11.595,0l-21.439,11.271    l4.095-23.873c0.714-4.167-0.787-8.302-3.583-11.027l-17.345-16.906l23.975-3.483c3.908-0.57,7.535-3.088,9.377-6.815    l10.719-21.719l10.72,21.721c1.886,3.818,5.548,6.255,9.381,6.813l23.97,3.483L282.725,459.877z M417.838,459.877    c-2.937,2.863-4.276,6.985-3.582,11.027l4.094,23.873l-21.44-11.271c-3.629-1.908-7.964-1.908-11.595,0l-21.439,11.271    l4.095-23.873c0.699-4.079-0.715-8.233-3.583-11.027l-17.345-16.906l23.975-3.483c4.055-0.592,7.56-3.138,9.377-6.815    l10.719-21.719l10.72,21.721c0.227,0.459,0.481,0.901,0.758,1.323c1.943,2.958,5.071,4.972,8.622,5.49l23.97,3.483    L417.838,459.877z" fill="#ffffff" data-original="#000000" style="" class=""/>
	</g>
</g>
<g xmlns="http://www.w3.org/2000/svg">
</g>
<g xmlns="http://www.w3.org/2000/svg">
</g>
<g xmlns="http://www.w3.org/2000/svg">
</g>
<g xmlns="http://www.w3.org/2000/svg">
</g>
<g xmlns="http://www.w3.org/2000/svg">
</g>
<g xmlns="http://www.w3.org/2000/svg">
</g>
<g xmlns="http://www.w3.org/2000/svg">
</g>
<g xmlns="http://www.w3.org/2000/svg">
</g>
<g xmlns="http://www.w3.org/2000/svg">
</g>
<g xmlns="http://www.w3.org/2000/svg">
</g>
<g xmlns="http://www.w3.org/2000/svg">
</g>
<g xmlns="http://www.w3.org/2000/svg">
</g>
<g xmlns="http://www.w3.org/2000/svg">
</g>
<g xmlns="http://www.w3.org/2000/svg">
</g>
<g xmlns="http://www.w3.org/2000/svg">
</g>
</g></svg>
