<?xml version="1.0"?>
<svg xmlns="http://www.w3.org/2000/svg" xmlns:xlink="http://www.w3.org/1999/xlink" xmlns:svgjs="http://svgjs.com/svgjs" version="1.1" width="512" height="512" x="0" y="0" viewBox="0 0 512 512" style="enable-background:new 0 0 512 512" xml:space="preserve"><g><g xmlns="http://www.w3.org/2000/svg"><path d="m464.552 269.316h-64.267c-8.284 0-15 6.716-15 15v167.684h94.267v-167.684c0-8.284-6.716-15-15-15z" fill="#ffffff" data-original="#000000" style=""/><path d="m143.219 417.733c-8.284 0-15 6.716-15 15v19.267h94.267v-19.267c0-8.284-6.716-15-15-15z" fill="#ffffff" data-original="#000000" style=""/><path d="m271.752 343.524c-8.284 0-15 6.716-15 15v93.476h94.267v-93.476c0-8.284-6.716-15-15-15z" fill="#ffffff" data-original="#000000" style=""/><path d="m496.686 482h-402.734v-230.241c-10.387-1.26-20.428-3.653-30-7.047v252.288c0 8.284 6.716 15 15 15h417.733c19.753-.681 19.986-29.223.001-30z" fill="#ffffff" data-original="#000000" style=""/><path d="m416.803 169.597 8.903 2.389-289.987 167.424c-7.175 4.142-9.633 13.316-5.49 20.49 3.524 6.104 12.294 10.222 20.49 5.49l290.004-167.433-2.389 8.944c-2.139 8.004 2.616 16.226 10.619 18.364 8.395 2.242 16.332-3.012 18.363-10.62l11.728-43.894c2.138-7.998-2.608-16.214-10.604-18.359l-43.861-11.769c-19.373-4.442-26.79 23.107-7.776 28.974z" fill="#ffffff" data-original="#000000" style=""/><path d="m222.485 111.4c0-61.426-49.974-111.4-111.4-111.4-147.584 5.601-147.544 217.221.001 222.8 61.425-.001 111.399-49.974 111.399-111.4zm-125.333 1.067v-64.267c.733-19.871 29.266-19.875 30 0v49.266h33.2c19.868.732 19.878 29.265 0 30h-48.2c-8.284.001-15-6.715-15-14.999z" fill="#ffffff" data-original="#000000" style=""/></g></g></svg>
