<?xml version="1.0"?>
<svg xmlns="http://www.w3.org/2000/svg" xmlns:xlink="http://www.w3.org/1999/xlink" xmlns:svgjs="http://svgjs.com/svgjs" version="1.1" width="512" height="512" x="0" y="0" viewBox="0 0 511.781 511.781" style="enable-background:new 0 0 512 512" xml:space="preserve" class=""><g><g xmlns="http://www.w3.org/2000/svg"><path d="m389.891 350.781h-56v-62.121c45.954-26.899 76.891-76.786 76.891-133.77-.001-85.407-69.484-154.89-154.891-154.89s-154.891 69.483-154.891 154.891c0 56.984 30.936 106.871 76.891 133.77v62.121h-56c-6.098 0-11.589 3.691-13.891 9.338s-.955 12.125 3.405 16.388l134 131c2.914 2.85 6.7 4.274 10.485 4.274s7.571-1.425 10.485-4.274l134-131c4.36-4.263 5.707-10.74 3.405-16.388-2.301-5.647-7.792-9.339-13.889-9.339zm-258.891-195.89c0-68.866 56.025-124.891 124.891-124.891s124.891 56.025 124.891 124.891-56.025 124.891-124.891 124.891-124.891-56.026-124.891-124.891zm124.891 320.914-97.199-95.023h34.199c8.284 0 15-6.716 15-15v-63.623c15.12 4.94 31.251 7.623 48 7.623s32.88-2.683 48-7.623v63.623c0 8.284 6.716 15 15 15h34.199z" fill="#ffffff" data-original="#000000" style="" class=""/><path d="m254.432 138.274c-15.529-5.739-18.103-9.485-18.047-15.834.111-12.382 12.483-13.695 17.775-13.639 7.789.034 20.147 3.697 20.147 13.379 0 8.284 6.716 15 15 15s15-6.716 15-15c0-21.969-15.831-36.079-34.35-41.207v-10.954c0-8.284-6.716-15-15-15s-15 6.716-15 15v10.528c-6.483 1.641-12.418 4.41-17.391 8.214-10.313 7.889-16.059 19.754-16.181 33.411-.276 30.872 27.233 40.589 40.454 45.258" fill="#ffffff" data-original="#000000" style="" class=""/><path d="m246.839 167.43c20.836 7.146 28.627 11.497 28.556 19.454-.11 12.273-12.252 13.641-17.634 13.641-.048 0-.096 0-.143-.001-7.79-.034-20.147-3.698-20.147-13.379 0-8.284-6.716-15-15-15s-15 6.716-15 15c0 21.97 15.831 36.08 34.351 41.207v11.412c0 8.284 6.716 15 15 15s15.001-6.716 15.001-15v-10.975c6.48-1.645 12.42-4.424 17.39-8.225 10.313-7.889 16.06-19.754 16.182-33.411.28-31.304-32.727-42.624-50.963-48.879" fill="#ffffff" data-original="#000000" style="" class=""/></g></g></svg>
