<?xml version="1.0"?>
<svg xmlns="http://www.w3.org/2000/svg" xmlns:xlink="http://www.w3.org/1999/xlink" xmlns:svgjs="http://svgjs.com/svgjs" version="1.1" width="512" height="512" x="0" y="0" viewBox="0 0 64 64" style="enable-background:new 0 0 512 512" xml:space="preserve" class=""><g><g xmlns="http://www.w3.org/2000/svg" id="Cluster"><path d="m38 50h14v4h-14z" fill="#ffffff" data-original="#000000" style="" class=""/><path d="m51 44h-12a1 1 0 0 0 -1 1v3h14v-3a1 1 0 0 0 -1-1z" fill="#ffffff" data-original="#000000" style="" class=""/><path d="m38 59a1 1 0 0 0 1 1h12a1 1 0 0 0 1-1v-3h-14z" fill="#ffffff" data-original="#000000" style="" class=""/><path d="m62 44a6 6 0 0 1 -6 6h-2v-5a3.009 3.009 0 0 0 -3-3h-12a3.009 3.009 0 0 0 -3 3v5h-7.88a4.6 4.6 0 0 1 1.88 3 4 4 0 0 1 -4 4h-20a4 4 0 0 1 -1-7.87v-.13a6 6 0 0 1 6-6 6.262 6.262 0 0 1 2.71.67 6.981 6.981 0 0 1 2.29-1.92v-5.75a3.009 3.009 0 0 0 -3-3h-7v-2h7a5 5 0 0 1 5 5v3.56a5.952 5.952 0 0 1 3.4-1.53 3.507 3.507 0 0 1 -.4-1.53 8.5 8.5 0 0 1 4-7.2v-1.3a3.009 3.009 0 0 0 -3-3h-16v-2h16a5 5 0 0 1 5 5v.38a8.3 8.3 0 0 1 4-.24v-16.14a3.009 3.009 0 0 0 -3-3h-16v-2h16a5 5 0 0 1 5 5v16.77a8.648 8.648 0 0 1 2.33 1.56 10.951 10.951 0 0 1 1.67-3.67v-19.66a5 5 0 0 1 5-5h5v2h-5a3.009 3.009 0 0 0 -3 3v17.49a11 11 0 0 1 4-2.08v-6.41a5 5 0 0 1 5-5h10v2h-10a3.009 3.009 0 0 0 -3 3v6.05c.33-.03.66-.05 1-.05a11.007 11.007 0 0 1 11 11 10.792 10.792 0 0 1 -1.21 5h.21a6 6 0 0 1 6 6z" fill="#ffffff" data-original="#000000" style="" class=""/><path d="m8 7h2v2h-2z" fill="#ffffff" data-original="#000000" style="" class=""/><path d="m2 23h2v2h-2z" fill="#ffffff" data-original="#000000" style="" class=""/><path d="m49 2h2v2h-2z" fill="#ffffff" data-original="#000000" style="" class=""/><path d="m60 11h2v2h-2z" fill="#ffffff" data-original="#000000" style="" class=""/><path d="m2 31h2v2h-2z" fill="#ffffff" data-original="#000000" style="" class=""/></g></g></svg>
