<svg width="813" height="789" viewBox="0 0 813 789" fill="none" xmlns="http://www.w3.org/2000/svg">
<path d="M403.966 0.0443326C396.696 0.471455 389.585 2.35491 383.057 5.5829L99.9039 140.643C85.1175 147.68 74.3707 161.069 70.6867 177.024L1.37849 480.146C-1.92432 494.374 0.743333 509.287 9.00036 521.482C9.9658 522.956 10.9821 524.378 12.0491 525.75L207.677 768.99C218.018 781.693 233.541 788.985 249.902 788.908H563.67C580.082 788.934 595.631 781.287 605.946 768.761L801.472 525.471C811.736 512.768 815.573 496 811.635 480.095L741.869 176.719C738.185 160.764 727.387 147.375 712.652 140.338L429.957 5.6083C421.81 1.59052 412.787 -0.322368 403.712 0.0443326H403.966Z" fill="#DE7177"/>
<path d="M406.555 103.346C396.799 104.032 389.406 112.391 389.914 122.147V126.923C390.372 132.335 391.185 137.695 392.252 143.005C393.81 153.174 394.371 163.47 393.929 173.747C392.963 177.126 391.032 180.175 388.39 182.512L388.009 189.677C377.719 190.54 367.506 192.116 357.445 194.402C315.118 203.955 276.577 225.906 246.826 257.537L240.729 253.218C237.375 254.234 233.768 253.853 230.693 252.201C222.447 246.098 214.814 239.206 207.904 231.622C204.433 227.475 200.726 223.53 196.801 219.808L193.041 216.811C189.688 214.117 185.572 212.568 181.278 212.364C178.716 212.229 176.158 212.701 173.813 213.743C171.468 214.785 169.404 216.367 167.787 218.36C162.046 226.414 163.926 237.567 171.954 243.335L175.46 246.129C179.973 249.132 184.656 251.872 189.484 254.336C198.478 259.341 206.964 265.209 214.84 272.12C216.855 274.993 218.025 278.372 218.219 281.876L223.757 286.957C193.854 331.825 181.583 386.169 189.256 439.547L182.142 441.58C180.287 444.527 177.823 447.042 174.876 448.897C164.951 451.547 154.791 453.223 144.541 453.902C139.101 454.012 133.672 454.436 128.281 455.172L123.784 456.188H123.276C120.155 456.621 117.216 457.912 114.785 459.917C112.355 461.921 110.528 464.561 109.509 467.542C108.49 470.523 108.318 473.729 109.012 476.802C109.707 479.875 111.241 482.695 113.444 484.948C115.667 487.19 118.469 488.769 121.538 489.509C124.607 490.249 127.821 490.121 130.821 489.14H131.152L135.725 488.632C140.882 487.108 145.964 485.228 150.918 483.093C160.445 479.282 170.328 476.361 180.44 474.455C183.946 474.659 187.299 475.853 190.145 477.885L197.767 476.615C214.281 527.859 248.986 571.279 295.327 598.641L292.227 605.12C293.65 608.092 294.184 611.395 293.752 614.672C289.56 624.378 284.428 633.676 278.432 642.416C275.142 646.752 272.106 651.273 269.336 655.958L267.177 660.531C265.61 663.249 264.825 666.347 264.908 669.483C264.991 672.619 265.939 675.671 267.648 678.302C269.356 680.934 271.759 683.041 274.59 684.393C277.421 685.745 280.57 686.288 283.691 685.962C286.818 685.611 289.787 684.399 292.267 682.461C294.748 680.524 296.642 677.936 297.74 674.987L299.849 670.668C301.78 665.587 303.406 660.404 304.727 655.17C309.224 644.067 311.663 632.152 317.811 624.784C319.821 622.895 322.353 621.656 325.078 621.227L328.889 614.291C379.123 633.6 434.708 633.735 485.035 614.672L488.414 621.151C491.87 621.659 494.969 623.565 497.052 626.359C501.829 635.455 505.691 644.982 508.638 654.814C509.981 660.079 511.627 665.262 513.567 670.337L515.675 674.657C516.784 677.595 518.684 680.169 521.166 682.094C523.647 684.019 526.612 685.221 529.734 685.565C532.855 685.91 536.011 685.384 538.852 684.046C541.694 682.708 544.109 680.61 545.832 677.985C547.539 675.343 548.48 672.281 548.552 669.137C548.623 665.994 547.823 662.891 546.239 660.175L544.029 655.602C541.259 650.934 538.222 646.429 534.933 642.111C529.09 633.676 524.059 624.682 519.689 615.257C519.282 613.533 519.224 611.746 519.521 610C519.818 608.254 520.463 606.586 521.417 605.094C520.333 602.878 519.391 600.596 518.597 598.26C564.836 570.694 599.389 527.122 615.725 475.802L622.94 477.072C625.532 474.709 628.936 473.464 632.417 473.566C642.503 475.497 652.386 478.647 661.939 482.204C666.893 484.491 671.975 486.422 677.132 488.048C678.352 488.378 680.13 488.657 681.502 488.988H681.832C684.831 489.956 688.04 490.073 691.101 489.326C694.162 488.578 696.956 486.996 699.171 484.754C701.386 482.513 702.935 479.701 703.646 476.631C704.357 473.561 704.203 470.354 703.199 467.367C702.172 464.383 700.336 461.743 697.895 459.742C695.454 457.741 692.506 456.458 689.378 456.036L684.449 454.867C679.058 454.131 673.629 453.707 668.189 453.597C657.925 452.936 647.762 451.259 637.854 448.592C634.805 446.89 632.265 444.349 630.537 441.275L623.677 439.242C630.991 385.889 618.461 331.707 588.464 286.983L594.46 281.444C594.206 277.963 595.349 274.508 597.61 271.84C605.41 265.133 613.87 259.214 622.763 254.158C627.591 251.693 632.273 248.953 636.787 245.951L640.496 242.954C643.227 241.258 645.423 238.825 646.828 235.934C648.234 233.043 648.792 229.813 648.438 226.619C648.085 223.424 646.834 220.394 644.83 217.881C642.827 215.367 640.153 213.472 637.117 212.415C634.084 211.359 630.814 211.183 627.685 211.907C624.556 212.631 621.696 214.225 619.434 216.506L615.674 219.504C611.751 223.226 608.044 227.171 604.572 231.317C597.864 238.99 590.446 245.977 582.392 252.227C579.142 253.55 575.587 253.937 572.128 253.345L565.7 257.918C528.607 219.046 478.633 194.91 425.077 190.083C425.077 187.543 424.746 183.732 424.695 182.537C421.825 180.556 419.817 177.532 419.157 174.103C418.805 163.842 419.451 153.572 421.088 143.437C422.18 138.102 422.942 132.767 423.425 127.355V122.274C423.933 112.518 416.565 104.159 406.784 103.473L406.555 103.346ZM385.367 234.595L380.285 323.339H379.904C379.65 328.827 376.424 333.501 371.469 336.144C366.515 338.786 360.646 337.998 356.226 334.772L283.437 283.197C306.605 260.441 335.669 244.611 367.354 237.491C373.299 236.221 379.295 235.255 385.316 234.595H385.367ZM427.744 234.595C465.981 239.346 501.575 256.52 529.115 283.477L457.012 334.721C452.566 338.278 446.469 338.989 441.311 336.55C436.154 334.111 432.851 328.928 432.775 323.237L427.744 234.595ZM257.014 316.581L323.579 375.981V376.362C327.72 379.969 329.524 385.584 328.304 390.945C327.085 396.306 322.969 400.549 317.71 401.997V402.251L232.294 426.819C228.067 388.336 236.774 349.541 257.04 316.555L257.014 316.581ZM555.614 316.581C575.837 349.482 584.78 388.074 581.071 426.514L495.528 401.87V401.539C490.193 400.091 486.128 395.848 484.934 390.488C483.74 385.127 485.518 379.563 489.659 375.904L555.716 316.784L555.614 316.581ZM392.912 380.605H420.148L436.789 401.743L430.742 428.165L406.276 439.928L381.759 428.165L375.992 401.743L392.912 380.605ZM480.157 452.708C481.301 452.58 482.698 452.58 483.587 452.708L571.671 467.57C558.968 504.155 533.892 535.405 501.168 556.314L467.124 473.896C466.188 471.685 465.797 469.282 465.983 466.888C466.17 464.494 466.929 462.18 468.196 460.141C469.464 458.101 471.203 456.396 473.266 455.169C475.33 453.942 477.659 453.228 480.056 453.089L480.157 452.708ZM332.217 453.089C337.196 453.165 341.795 455.731 344.513 459.898C347.232 464.064 347.664 469.298 345.707 473.871V474.201L311.866 555.959C279.473 535.202 254.88 504.333 241.796 468.129L329.117 453.317C330.083 453.216 331.073 453.216 332.064 453.317L332.217 453.089ZM405.996 488.657C408.772 488.57 411.518 489.255 413.927 490.637C416.336 492.019 418.314 494.042 419.64 496.483H419.97L463.008 574.149L445.808 579.231C414.152 586.471 381.098 584.769 350.331 574.302L393.522 496.635C396.139 492.062 400.966 489.267 406.225 489.14L405.996 488.657Z" fill="white" stroke="white" stroke-width="1.39734"/>
</svg>
