<?xml version="1.0"?>
<svg xmlns="http://www.w3.org/2000/svg" xmlns:xlink="http://www.w3.org/1999/xlink" xmlns:svgjs="http://svgjs.com/svgjs" version="1.1" width="512" height="512" x="0" y="0" viewBox="0 0 74 74" style="enable-background:new 0 0 512 512" xml:space="preserve" class=""><g><path xmlns="http://www.w3.org/2000/svg" d="m70.43 28.48c0 .05 0 .1-.05.14s-2.09 4.88-1.14 13.08c.09.76 2.07 18.59-5.14 26.23-.41.64-2.75 4.07-5.58 4.07a3.59 3.59 0 0 1 -1.37-.27l-2.15-.43a37.83 37.83 0 0 0 -7.38-.76c-1.89 0-3.76-.08-5.59-.24a35.34 35.34 0 0 1 -19.79-8.54l-.09-.08a14 14 0 0 0 -16.48-1.06l-.91.56a1 1 0 0 1 -1.53-.85v-37.66a1 1 0 0 1 0-.24 4 4 0 0 1 4.27-3c1.08-.09 11.14-.75 16.59 4.33.23.22 5 5 6.86 9.78.09.12.48.55 1.62.24.15 0 9-1.77 15.41 8.13.67-3.67 2.36-10.07 6.53-15.22a9.13 9.13 0 0 1 -4.46-1.91 10.56 10.56 0 0 1 -3.57-7.12l-1.72-.06a3.75 3.75 0 0 1 -2.72-1.31 3.67 3.67 0 0 1 -.87-2.86 35.52 35.52 0 0 1 2.14-8.86 4 4 0 0 1 5.09-2.35 33.07 33.07 0 0 0 12.34 1.78 4.43 4.43 0 0 1 4.51 3.83c.42 3.14 1.42 8.85 3.39 11.84a10.57 10.57 0 0 1 1.79 8.81z" fill="#ffffff" data-original="#000000" style="" class=""/></g></svg>
