<svg xmlns="http://www.w3.org/2000/svg" version="1.1" xmlns:xlink="http://www.w3.org/1999/xlink" xmlns:svgjs="http://svgjs.com/svgjs" width="1700" height="700" preserveAspectRatio="none" viewBox="0 0 1700 700"><g mask="url(&quot;#SvgjsMask1078&quot;)" fill="none"><rect width="1700" height="700" x="0" y="0" fill="rgba(4, 92, 140, 1)"></rect><path d="M0,507.951C120.259,501.478,238.279,587.651,351.779,547.379C473.266,504.273,568.793,401.406,625.94,285.857C683.972,168.519,698.689,31.402,670.151,-96.353C642.713,-219.187,569.217,-329.444,470.934,-408.066C381.394,-479.695,257.402,-470.983,150.381,-512.149C30.535,-558.248,-73.106,-704.496,-195.037,-664.235C-318.109,-623.598,-299.419,-430.901,-386.477,-334.884C-476.792,-235.274,-659.584,-227.844,-705.345,-101.413C-750.667,23.807,-665.577,157.58,-608.219,277.764C-551.682,396.226,-499.751,540.142,-376.987,586.603C-254.447,632.979,-130.833,514.993,0,507.951" fill="#04507a"></path><path d="M1700 1184.711C1793.339 1184.887 1889.807 1167.512 1964.351 1111.339 2036.609 1056.888 2070.483 968.256 2100.508 882.906 2128.365 803.721 2132.907 721.97 2130.849 638.053 2128.535 543.693 2154.456 430.796 2087.7799999999997 363.987 2020.607 296.681 1903.73 343.62 1811.998 318.568 1722.809 294.211 1648.67 197.32100000000003 1558.93 219.56 1469.53 241.71499999999997 1448.24 360.36 1382.609 424.979 1309.057 497.397 1167.415 519.158 1151.1190000000001 621.083 1134.887 722.606 1258.4 789.203 1310.173 878.028 1355.461 955.727 1365.608 1054.733 1436.29 1110.34 1509.555 1167.979 1606.78 1184.535 1700 1184.711" fill="#05689e"></path></g><defs><mask id="SvgjsMask1078"><rect width="1700" height="700" fill="#ffffff"></rect></mask></defs></svg>