<svg xmlns="http://www.w3.org/2000/svg" version="1.1" xmlns:xlink="http://www.w3.org/1999/xlink" xmlns:svgjs="http://svgjs.com/svgjs" width="2200" height="800" preserveAspectRatio="none" viewBox="0 0 2200 800"><g mask="url(&quot;#SvgjsMask1098&quot;)" fill="none"><rect width="2200" height="800" x="0" y="0" fill="rgba(4, 92, 140, 1)"></rect><path d="M0,645.748C157.308,687.405,324.829,804.666,470.453,732.039C613.726,660.584,643.922,465.545,675.883,308.665C703.2,174.582,668.559,41.675,638.288,-91.772C610.349,-214.94,581.764,-337.444,506.341,-438.747C427.011,-545.297,319.455,-622.832,199.854,-680.641C62.33,-747.114,-83.225,-821.699,-233.884,-796.537C-390.716,-770.344,-525.217,-665.428,-626.272,-542.668C-725.846,-421.707,-773.732,-269.528,-795.443,-114.367C-817.092,40.352,-842.174,216.338,-750.14,342.577C-659.468,466.949,-476.313,461.437,-333.612,519.11C-221.052,564.601,-117.36,614.669,0,645.748" fill="#04507a"></path><path d="M2200 1487.908C2333.701 1480.837 2461.495 1452.531 2582.418 1395.054 2717.431 1330.879 2862.178 1265.854 2938.093 1137.076 3016.987 1003.244 3060.601 828.329 3001.103 684.819 2942.666 543.867 2768.999 500.379 2640.204 418.561 2548.239 360.14 2459.087 304.347 2354.441 274.02099999999996 2250.117 243.789 2141.546 215.50199999999995 2036.642 243.65300000000002 1930.558 272.121 1861.225 364.555 1773.0430000000001 430.039 1656.652 516.471 1483.125 553.159 1435.475 690.078 1388 826.495 1477.242 971.3 1539.279 1101.741 1600.5030000000002 1230.473 1667.601 1364.999 1790.671 1436.929 1911.834 1507.7440000000001 2059.8559999999998 1495.3200000000002 2200 1487.908" fill="#05689e"></path></g><defs><mask id="SvgjsMask1098"><rect width="2200" height="800" fill="#ffffff"></rect></mask></defs></svg>