<svg xmlns="http://www.w3.org/2000/svg" version="1.1" xmlns:xlink="http://www.w3.org/1999/xlink" xmlns:svgjs="http://svgjs.com/svgjs" width="1000" height="700" preserveAspectRatio="none" viewBox="0 0 1000 700"><g mask="url(&quot;#SvgjsMask1018&quot;)" fill="none"><rect width="1000" height="700" x="0" y="0" fill="rgba(4, 92, 140, 1)"></rect><path d="M0,428.679C79.359,428.215,140.809,365.774,209.235,325.576C280.848,283.506,387.58,267.309,410.553,187.493C434.21,105.304,333.849,38.211,316.024,-45.437C300.023,-120.525,352.359,-205.255,312.834,-271.073C272.594,-338.082,186.624,-358.45,112.74,-383.956C35.681,-410.559,-47.713,-450.94,-123.86,-421.829C-199.445,-392.933,-217.774,-295.705,-272.947,-236.51C-331.037,-174.186,-436.881,-148.594,-455.93,-65.553C-474.905,17.164,-410.354,94.877,-365.491,166.914C-325.32,231.416,-272.591,283.787,-210.813,328.032C-146.197,374.31,-79.478,429.144,0,428.679" fill="#04507a"></path><path d="M1000 1010.845C1069.054 1022.691 1150.165 1062.798 1205.724 1020.113 1262.326 976.627 1222.521 880.067 1253.758 815.887 1286.284 749.058 1398.57 717.779 1388.724 644.11 1378.914 570.716 1271.6779999999999 560.823 1213.538 514.968 1168.756 479.649 1136.025 433.83 1086.419 405.685 1024.992 370.833 958.021 307.201 892.123 332.605 824.784 358.565 825.626 455.754 791.5360000000001 519.365 766.057 566.909 738.2860000000001 609.737 717.0360000000001 659.316 688.143 726.728 617.457 794.174 644.539 862.3340000000001 671.248 929.5550000000001 768.39 928.655 835.1320000000001 956.54 889.624 979.307 941.793 1000.86 1000 1010.845" fill="#05689e"></path></g><defs><mask id="SvgjsMask1018"><rect width="1000" height="700" fill="#ffffff"></rect></mask></defs></svg>