<svg xmlns="http://www.w3.org/2000/svg" version="1.1" xmlns:xlink="http://www.w3.org/1999/xlink" xmlns:svgjs="http://svgjs.com/svgjs" width="400" height="700" preserveAspectRatio="none" viewBox="0 0 400 700"><g mask="url(&quot;#SvgjsMask1136&quot;)" fill="none"><rect width="400" height="700" x="0" y="0" fill="rgba(4, 92, 140, 1)"></rect><path d="M0,297.033C54.985,312.949,123.507,294.59,162.23,252.434C200.749,210.499,170.064,140.238,192.211,87.78C213.321,37.777,287.13,13.123,286.173,-41.146C285.235,-94.348,229.918,-130.215,187.794,-162.725C151.426,-190.792,107.204,-202.135,62.719,-213.601C19.682,-224.694,-24.198,-240.135,-67.07,-228.418C-110.283,-216.607,-140.868,-181.212,-172.359,-149.35C-205.94,-115.374,-252.914,-84.508,-256.395,-36.864C-259.875,10.764,-216.728,47.287,-189.596,86.586C-167.025,119.279,-137.929,143.731,-111.338,173.246C-73.424,215.33,-54.41,281.283,0,297.033" fill="#04507a"></path><path d="M400 1022.491C458.584 1012.7850000000001 503.94100000000003 971.1949999999999 551.058 935.0509999999999 594.422 901.7860000000001 640.549 869.937 663.518 820.345 686.55 770.617 682.9 714.586 678.47 659.962 673.781 602.143 680.64 532.8820000000001 637.095 494.55600000000004 593.201 455.922 524.154 483.35400000000004 466.53 473.41999999999996 417.428 464.95500000000004 371.825 427.205 323.818 440.546 275.703 453.91700000000003 248.764 502.974 218.165 542.439 189.136 579.878 165.396 619.162 150.467 664.123 132.87599999999998 717.101 113.51999999999998 771.216 123.99700000000001 826.046 135.96800000000002 888.694 160.977 954.085 212.94 991.0699999999999 265.51599999999996 1028.491 336.334 1033.039 400 1022.491" fill="#05689e"></path></g><defs><mask id="SvgjsMask1136"><rect width="400" height="700" fill="#ffffff"></rect></mask></defs></svg>