<svg xmlns="http://www.w3.org/2000/svg" version="1.1" xmlns:xlink="http://www.w3.org/1999/xlink" xmlns:svgjs="http://svgjs.com/svgjs" width="400" height="600" preserveAspectRatio="none" viewBox="0 0 400 600"><g mask="url(&quot;#SvgjsMask1109&quot;)" fill="none"><rect width="400" height="600" x="0" y="0" fill="rgba(4, 92, 140, 1)"></rect><path d="M0,237.817C44.149,236.138,80.408,206.822,118.012,183.63C156.34,159.992,205.936,143.416,221.551,101.179C237.106,59.106,205.18,15.747,196.338,-28.229C188.102,-69.195,194.659,-113.796,171.356,-148.481C146.79,-185.045,106.586,-207.172,65.479,-223.003C21.737,-239.849,-26.487,-256.494,-71.004,-241.817C-115.168,-227.256,-139.401,-182.271,-168.378,-145.901C-196.156,-111.035,-235.079,-78.567,-236.565,-34.013C-238.033,10.001,-195.508,40.898,-175.922,80.341C-157.171,118.104,-155.339,164.708,-123.924,192.829C-90.504,222.745,-44.822,239.521,0,237.817" fill="#04507a"></path><path d="M400 839.1610000000001C444.588 836.517 464.017 780.806 496.485 750.133 522.0840000000001 725.949 551.42 707.434 570.659 677.937 592.46 644.512 616.8199999999999 608.996 614.523 569.156 612.168 528.308 583.184 495.31600000000003 558.261 462.866 531.929 428.581 507.881 385.871 465.883 375.624 424.095 365.429 385.78 398.899 344.414 410.692 302.625 422.606 254.601 417.18399999999997 221.473 445.305 186.605 474.903 164.438 520.087 161.754 565.745 159.149 610.058 182.158 651.398 207.201 688.049 229.366 720.488 264.948 737.7909999999999 295.871 762.028 330.571 789.225 355.989 841.77 400 839.1610000000001" fill="#05689e"></path></g><defs><mask id="SvgjsMask1109"><rect width="400" height="600" fill="#ffffff"></rect></mask></defs></svg>