<svg xmlns="http://www.w3.org/2000/svg" version="1.1" xmlns:xlink="http://www.w3.org/1999/xlink" xmlns:svgjs="http://svgjs.com/svgjs" width="1440" height="560" preserveAspectRatio="none" viewBox="0 0 1440 560"><g mask="url(&quot;#SvgjsMask1139&quot;)" fill="none"><rect width="1440" height="560" x="0" y="0" fill="rgba(4, 92, 140, 1)"></rect><path d="M151.88 112.09L276.59 184.09L276.59 328.09L151.88 400.09L27.17 328.09L27.17 184.09zM276.59 -103.91L401.3 -31.91L401.3 112.09L276.59 184.09L151.88 112.09L151.88 -31.91zM401.3 112.09L526.01 184.09L526.01 328.09L401.3 400.09L276.59 328.09L276.59 184.09zM650.73 112.09L775.44 184.09L775.44 328.09L650.73 400.09L526.01 328.09L526.01 184.09zM775.44 -103.91L900.15 -31.91L900.15 112.09L775.44 184.09L650.73 112.09L650.73 -31.91zM1149.57 544.09L1274.28 616.09L1274.28 760.09L1149.57 832.09L1024.86 760.09L1024.86 616.09zM1398.99 544.09L1523.7 616.09L1523.7 760.09L1398.99 832.09L1274.28 760.09L1274.28 616.09z" stroke="rgba(5, 82, 124, 1)" stroke-width="2"></path><path d="M1326.01 -40.97L1481.04 48.53L1481.04 227.53L1326.01 317.03L1170.99 227.53L1170.99 48.53zM1326.01 496.03L1481.04 585.53L1481.04 764.53L1326.01 854.03L1170.99 764.53L1170.99 585.53z" stroke="rgba(0, 0, 0, 0)" stroke-width="2"></path></g><defs><mask id="SvgjsMask1139"><rect width="1440" height="560" fill="#ffffff"></rect></mask></defs></svg>