<svg width="1151" height="396" viewBox="0 0 1151 396" fill="none" xmlns="http://www.w3.org/2000/svg">
<path d="M1150.62 370.36L1128.78 19.8228C1128.08 8.68144 1118.84 0 1107.68 0H1049.51C1040.64 0 1032.74 5.51994 1029.68 13.8294L966.695 184.948C959.974 203.984 954.133 221.136 949.011 236.859C944.108 221.077 938.546 203.942 932.121 184.956L871.858 14.1084C868.883 5.65519 860.894 0.00844856 851.934 0.00844856H793.768C782.66 0.00844856 773.463 8.59691 772.685 19.6706L748.053 372.888C747.638 378.729 749.684 384.486 753.682 388.771C757.681 393.057 763.277 395.492 769.135 395.492H812.627C823.785 395.492 833.033 386.81 833.726 375.669L843.151 224.154C843.76 213.925 844.36 203.553 844.901 193.181C846.803 198.904 848.747 204.787 850.793 210.823L907.92 379.05C910.828 387.622 918.867 393.387 927.928 393.387H962.519C971.403 393.387 979.341 387.833 982.384 379.481L1044.73 208.135C1047.67 200.104 1050.53 192.217 1053.26 184.466C1053.89 196.841 1054.53 208.955 1055.15 220.434L1064.05 375.559C1064.69 386.743 1073.96 395.475 1085.15 395.475H1129.7C1129.77 395.483 1129.83 395.475 1129.87 395.475C1141.54 395.475 1151 386.016 1151 374.342C1150.98 372.989 1150.86 371.654 1150.62 370.36V370.36Z" fill="white"/>
<path d="M356.187 394.644H300.575C296.11 394.644 292.092 391.911 290.502 387.75L250.106 282.865H110.753L72.8034 387.536C71.2676 391.804 67.2136 394.644 62.6596 394.644H10.7976C7.2437 394.644 3.92196 392.894 1.88605 389.965C-0.114137 387.036 -0.560607 383.303 0.725228 379.982L142.453 10.9114C144.042 6.7324 148.06 4 152.525 4H205.155C209.531 4 213.477 6.64311 215.138 10.6971L366.188 379.75C367.563 383.089 367.17 386.875 365.17 389.858C363.152 392.84 359.795 394.644 356.187 394.644ZM132.863 221.503H226.818L193.797 133.887C188.261 119.261 183.367 105.777 179.135 93.4905C175.849 104.992 172.116 116.421 167.937 127.762L132.863 221.503Z" fill="white"/>
<path d="M698.015 358.646L570.591 170.654L686.766 34.4821C692.06 28.2765 693.256 19.5619 689.844 12.152C686.423 4.75039 679.013 0.00835876 670.851 0.00835876H614.858C608.569 0.00835876 602.614 2.83518 598.65 7.71101L499.929 128.963V20.9084C499.929 9.3586 490.57 0 479.02 0H433.908C422.359 0 413 9.3586 413 20.9084V370.371C413 381.921 422.359 391.28 433.908 391.28H479.02C490.57 391.28 499.929 381.921 499.929 370.371V244.913L510.099 233.154L609.94 382.03C613.821 387.817 620.336 391.288 627.303 391.288H680.711C688.456 391.288 695.556 387.014 699.186 380.181C702.807 373.332 702.364 365.052 698.015 358.646V358.646Z" fill="white"/>
</svg>
