<svg width="512" height="512" viewBox="0 0 512 512" fill="none" xmlns="http://www.w3.org/2000/svg">
<path d="M474.5 0H128C123.858 0 120.5 3.357 120.5 7.5C120.5 11.643 123.858 15 128 15H248.707L248.808 91.719C248.664 100.327 256.475 109.647 266.819 109.25C272.238 109.25 277.498 107.66 282.029 104.651C287.351 101.118 293.555 99.25 299.969 99.25C317.355 98.849 334.061 115.164 332.392 134.032C331.301 150.113 317.826 163.367 301.712 164.204C294.689 164.567 287.911 162.731 282.098 158.894C278.546 156.541 272.193 154.1 266.152 154.249C256.52 154.249 248.67 162.085 248.652 171.718L248.623 187.986C248.616 192.129 251.967 195.492 256.109 195.5H256.123C260.259 195.5 263.615 192.15 263.622 188.014L263.652 171.746C263.654 170.37 264.776 169.25 266.152 169.25C268.211 169.23 270.301 169.497 273.832 171.411C282.341 177.028 292.252 179.709 302.492 179.184C326.448 177.938 345.736 158.963 347.357 135.046C349.836 109.091 327.056 83.733 299.969 84.249C290.594 84.249 281.521 86.982 273.732 92.154C272.449 93.004 269.701 94.186 266.307 94.249C265.406 94.249 264.812 93.789 264.538 93.516C264.265 93.242 263.806 92.647 263.807 91.704L263.78 15H474.5C486.906 15 497 25.094 497 37.5V248.5H420.051C420.04 248.5 420.03 248.5 420.02 248.5C415.436 248.5 411.093 250.315 407.789 253.613C404.441 256.956 402.52 261.568 402.52 266.266C402.495 270.392 403.833 276.586 407.175 281.734C410.999 287.521 412.833 294.286 412.477 301.298C411.645 317.667 398.7 330.869 382.365 332.008C364.998 333.642 347.154 318.52 347.52 299.589C347.52 293.169 349.384 286.97 352.914 281.661C355.191 278.249 357.577 272.11 357.52 266.141C357.52 256.43 349.683 248.515 340.038 248.498H263.514L263.56 223.012C263.568 218.869 260.215 215.506 256.074 215.498C256.069 215.498 256.065 215.498 256.06 215.498C251.925 215.498 248.568 218.848 248.56 222.984L248.514 248.498H171.883C170.505 248.496 169.25 247.237 169.25 245.858V245.637C169.25 243.181 169.975 240.792 171.35 238.724C176.518 230.934 179.25 221.865 179.25 212.497C179.792 186.578 155.605 162.624 128.546 165.103C104.625 166.681 85.612 185.932 84.32 209.885C83.769 220.17 86.457 230.112 92.094 238.634C93.504 240.766 94.249 243.187 94.249 245.727C94.249 246.489 93.923 247.251 93.356 247.818C93.023 248.151 92.472 248.547 91.773 248.547C91.772 248.547 91.771 248.547 91.77 248.547L15 248.5V37.5C15 25.094 25.093 15 37.5 15H93C97.142 15 100.5 11.643 100.5 7.5C100.5 3.357 97.142 0 93 0H37.5C16.822 0 0 16.822 0 37.5V474.5C0 495.178 16.822 512 37.5 512H474.5C495.178 512 512 495.178 512 474.5V443C512 438.857 508.643 435.5 504.5 435.5C500.357 435.5 497 438.857 497 443V474.5C497 486.906 486.906 497 474.5 497H263.51C263.454 493.797 263.621 421.991 263.461 418.636C262.742 409.599 254.954 402.52 245.73 402.52H245.56C240.17 402.52 234.883 404.127 230.265 407.173C224.477 410.998 217.712 412.828 210.702 412.48C194.33 411.646 181.128 398.702 179.993 382.369C179.654 377.51 180.357 372.782 182.08 368.317C183.572 364.454 181.649 360.111 177.785 358.62C173.921 357.124 169.579 359.049 168.087 362.915C165.565 369.445 164.536 376.342 165.029 383.411C166.691 407.305 185.998 426.242 209.943 427.461C220.168 427.976 230.06 425.289 238.53 419.692C239.895 418.834 242.091 417.803 245.561 417.52C246.919 417.52 248.414 418.619 248.506 419.787C248.535 420.07 248.501 496.796 248.511 497.001H37.5C25.093 497 15 486.906 15 474.5V263.5L91.717 263.551H91.747C96.316 263.551 100.65 261.736 103.954 258.438C107.32 255.078 109.25 250.447 109.25 245.64C109.25 240.239 107.644 234.956 104.605 230.363C100.756 224.544 98.921 217.741 99.299 210.695C100.182 194.317 113.18 181.153 129.534 180.074C146.868 178.518 164.613 193.614 164.25 212.501C164.25 218.909 162.383 225.11 158.854 230.43C155.842 234.961 154.25 240.221 154.25 245.641V245.862C154.25 255.571 162.148 263.484 171.87 263.502H248.5L248.491 340.265C248.491 341.025 248.003 342.133 245.561 342.521C243.105 342.648 240.706 341.796 238.649 340.429C230.882 335.255 221.809 332.521 212.411 332.521C208.28 332.521 204.176 333.053 200.216 334.103C196.212 335.165 193.827 339.271 194.888 343.275C195.949 347.279 200.055 349.659 204.059 348.603C206.766 347.885 209.576 347.521 212.411 347.521C218.84 347.521 225.037 349.385 230.34 352.917C233.75 355.193 239.889 357.578 245.861 357.521C254.89 357.521 262.417 350.737 263.39 341.847C263.752 339.563 263.376 265.806 263.502 263.502H340.025C341.355 263.504 342.521 264.739 342.521 266.145C342.516 267.959 342.195 270.101 340.421 273.363C335.253 281.138 332.521 290.209 332.521 299.592C332.004 325.882 356.35 349.406 383.409 346.974C407.305 345.309 426.242 326.001 427.459 302.063C427.98 291.831 425.293 281.942 419.69 273.466C418.831 272.13 417.725 269.698 417.521 266.269C417.521 265.524 417.836 264.782 418.387 264.232C418.721 263.899 419.275 263.503 420.034 263.503H420.038H497V408C497 412.143 500.357 415.5 504.5 415.5C508.643 415.5 512 412.143 512 408V37.5C512 16.822 495.178 0 474.5 0Z" fill="#FEFEFE"/>
<path d="M60.768 418.95C60.768 419.502 60.832 420.039 60.945 420.557C61.023 422.444 61.801 424.237 63.146 425.573C64.551 426.968 66.451 427.75 68.43 427.75H68.458C69.142 427.747 85.281 427.685 91.719 427.573C114.324 427.177 130.731 407.275 130.731 380.25C130.731 351.839 114.734 332.75 90.925 332.75H68.268C66.276 332.75 64.367 333.542 62.96 334.952C61.553 336.361 60.764 338.272 60.768 340.265V340.331V340.334V418.95ZM90.926 347.75C109.216 347.75 115.732 364.538 115.732 380.25C115.732 395.614 108.136 412.283 91.458 412.575C87.917 412.637 81.185 412.683 75.905 412.714C75.874 403.337 75.826 387.624 75.826 380.162C75.826 373.906 75.799 357.473 75.782 347.75H90.926Z" fill="#FEFEFE"/>
<path d="M86.959 44.393C82.896 45.197 80.253 49.142 81.057 53.206C81.617 55.61 96.224 130.689 96.934 133.06C98.252 136.77 101.77 139.25 105.702 139.25H105.765C109.723 139.223 113.238 136.687 114.512 132.94C114.534 132.875 114.555 132.808 114.576 132.743L131.755 77.243L148.857 132.757C148.888 132.859 148.922 132.96 148.958 133.06C150.276 136.77 153.794 139.25 157.726 139.25H157.789C161.747 139.223 165.262 136.687 166.536 132.94C167.029 131.449 182.117 54.641 182.44 53.36C183.248 49.297 180.61 45.349 176.548 44.541C172.484 43.728 168.537 46.37 167.728 50.433L156.528 106.71L138.916 49.542C137.697 45.583 133.498 43.363 129.541 44.582C126.807 45.425 124.903 47.688 124.388 50.312L106.931 106.713L95.771 50.295C94.969 46.231 91.025 43.588 86.959 44.393V44.393Z" fill="#FEFEFE"/>
<path d="M409.376 401.041C409.376 385.441 396.157 372.75 379.908 372.75H358.649C358.645 372.75 358.64 372.751 358.636 372.751C358.632 372.751 358.628 372.75 358.623 372.75C354.48 372.75 351.123 376.107 351.123 380.25V460.25C351.123 464.393 354.48 467.75 358.623 467.75C362.766 467.75 366.123 464.393 366.123 460.25V430.98L396.245 465.205C397.727 466.89 399.798 467.75 401.878 467.75C403.638 467.75 405.405 467.134 406.83 465.88C409.939 463.144 410.241 458.404 407.505 455.295L384.369 429.008C398.509 426.937 409.376 415.185 409.376 401.041V401.041ZM379.908 414.332C376.762 414.332 370.98 414.358 366.255 414.383C366.23 409.737 366.203 404.093 366.203 401.041C366.203 398.47 366.187 392.603 366.173 387.75H379.908C387.751 387.75 394.376 393.837 394.376 401.041C394.376 408.245 387.751 414.332 379.908 414.332Z" fill="#FEFEFE"/>
<path d="M420.25 179.25C446.441 179.25 467.75 157.941 467.75 131.75C467.75 105.559 446.441 84.25 420.25 84.25C394.059 84.25 372.75 105.559 372.75 131.75C372.75 157.941 394.059 179.25 420.25 179.25ZM420.25 99.25C438.171 99.25 452.75 113.829 452.75 131.75C452.75 149.671 438.171 164.25 420.25 164.25C402.329 164.25 387.75 149.671 387.75 131.75C387.75 113.829 402.329 99.25 420.25 99.25Z" fill="#FEFEFE"/>
</svg>
