<?xml version="1.0"?>
<svg xmlns="http://www.w3.org/2000/svg" xmlns:xlink="http://www.w3.org/1999/xlink" xmlns:svgjs="http://svgjs.com/svgjs" version="1.1" width="512" height="512" x="0" y="0" viewBox="0 0 511.958 511.958" style="enable-background:new 0 0 512 512" xml:space="preserve" class=""><g><g xmlns="http://www.w3.org/2000/svg"><path d="m498.799 313.681-98.878-98.876c-17.943-17.943-41.8-27.825-67.175-27.825h-7.554c15.98-17.006 25.786-39.878 25.786-65 0-52.383-42.617-95-95-95s-95 42.617-95 95c0 25.122 9.806 47.994 25.786 65h-7.554c-25.375 0-49.231 9.882-67.175 27.825l-98.879 98.877c-17.544 17.545-17.544 46.094.001 63.639l81 81c12.557 12.556 30.3 16.515 46.82 10.611v13.047c0 8.284 6.716 15 15 15h200c8.284 0 15-6.716 15-15v-13.047c16.523 5.906 34.265 1.944 46.82-10.611l81.001-81c17.546-17.545 17.546-46.094.001-63.64zm-307.82-191.701c0-35.841 29.159-65 65-65s65 29.159 65 65-29.159 65-65 65-65-29.159-65-65zm-50 255.882-32.361-32.36 32.361-32.36zm336.608-21.753-81 81c-6.587 6.588-14.195 4.148-16.372 3.242-2.163-.9-9.193-4.543-9.235-13.763v-.167c.02-3.917 1.752-7.883 4.755-10.886l59.426-59.425c2.813-2.813 4.394-6.628 4.394-10.607s-1.58-7.793-4.394-10.606l-68.574-68.573c-4.291-4.291-10.743-5.573-16.347-3.251-5.605 2.321-9.26 7.791-9.26 13.858v149.454.242 40.355h-170v-40.355c0-.08 0-.161 0-.242v-149.457c0-6.067-3.654-11.537-9.26-13.858-5.603-2.322-12.057-1.039-16.347 3.251l-68.574 68.573c-2.813 2.813-4.394 6.628-4.394 10.606s1.58 7.793 4.394 10.607l59.426 59.424c3.003 3.003 4.735 6.97 4.755 10.886v.167c-.042 9.22-7.072 12.864-9.235 13.764-2.176.906-9.783 3.346-16.372-3.241l-80.999-81c-5.849-5.849-5.849-15.366-.001-21.214l98.878-98.877c12.277-12.277 28.6-19.038 45.962-19.038h153.535c17.362 0 33.685 6.761 45.962 19.038l98.877 98.877c5.847 5.85 5.847 15.367 0 21.216zm-106.608 21.753v-64.721l32.361 32.36z" fill="#ffffff" data-original="#000000" style="" class=""/><path d="m415.993 64.981c2.859 0 5.75-.816 8.307-2.521l30-20c6.894-4.596 8.756-13.909 4.16-20.801-4.596-6.893-13.909-8.755-20.801-4.161l-30 20c-6.894 4.596-8.756 13.909-4.16 20.801 2.89 4.337 7.646 6.682 12.494 6.682z" fill="#ffffff" data-original="#000000" style="" class=""/><path d="m407.659 174.461 30 20c2.558 1.705 5.447 2.521 8.307 2.521 4.847 0 9.604-2.346 12.494-6.681 4.596-6.893 2.733-16.206-4.16-20.801l-30-20c-6.893-4.594-16.206-2.733-20.801 4.161-4.596 6.891-2.734 16.204 4.16 20.8z" fill="#ffffff" data-original="#000000" style="" class=""/><path d="m413.979 105.98c0 8.284 6.716 15 15 15h40c8.284 0 15-6.716 15-15s-6.716-15-15-15h-40c-8.284 0-15 6.716-15 15z" fill="#ffffff" data-original="#000000" style="" class=""/><path d="m57.659 42.461 30 20c2.558 1.705 5.447 2.521 8.307 2.521 4.847 0 9.604-2.346 12.494-6.681 4.596-6.893 2.733-16.206-4.16-20.801l-30-20c-6.893-4.594-16.206-2.732-20.801 4.161-4.596 6.891-2.734 16.204 4.16 20.8z" fill="#ffffff" data-original="#000000" style="" class=""/><path d="m87.659 149.499-30 20c-6.894 4.596-8.756 13.909-4.16 20.801 2.891 4.336 7.646 6.681 12.494 6.681 2.859 0 5.75-.816 8.307-2.521l30-20c6.894-4.596 8.756-13.909 4.16-20.801-4.596-6.893-13.91-8.754-20.801-4.16z" fill="#ffffff" data-original="#000000" style="" class=""/><path d="m42.979 120.98h40c8.284 0 15-6.716 15-15s-6.716-15-15-15h-40c-8.284 0-15 6.716-15 15s6.716 15 15 15z" fill="#ffffff" data-original="#000000" style="" class=""/></g></g></svg>
