<?xml version="1.0"?>
<svg xmlns="http://www.w3.org/2000/svg" xmlns:xlink="http://www.w3.org/1999/xlink" xmlns:svgjs="http://svgjs.com/svgjs" version="1.1" width="512" height="512" x="0" y="0" viewBox="0 0 511.98 511.98" style="enable-background:new 0 0 512 512" xml:space="preserve" class=""><g><path xmlns="http://www.w3.org/2000/svg" d="m505.398 138.492c-5.921-6.06-15.287-8.153-23.277-5.39l-103.103-103.684c2.441-7.841.612-16.694-5.529-22.836-8.854-8.852-23.35-8.765-32.313.199-9.663 9.664-17.106 21.812-22.124 36.105-3.346 9.128 11.058 14.202 14.155 4.966 4.265-12.154 10.516-22.404 18.577-30.465 7.221-7.422 18.332 3.668 10.899 10.9-25.684 25.685-23.411 75.61-15.593 116.889-7.228-1.806-11.151-3.048-16.997-4.623-3.729-22.259-4.881-42.51-3.423-60.255.34-4.128-2.731-7.75-6.86-8.089-4.112-.337-7.749 2.731-8.089 6.86-1.427 17.349-.535 36.807 2.632 57.961-7.786-1.44-15.564-2.429-23.237-2.929-46.406-3.006-88.021 11.388-117.174 40.541-29.158 29.16-43.551 70.778-40.528 117.169.442 7.607 1.392 15.236 2.84 23.021-45.37-6.874-97.712-5.418-129.474 26.342-8.963 8.964-9.052 23.458-.198 32.313 5.351 5.434 13.389 7.724 20.836 6.071l58.125 58.125c2.93 2.928 7.677 2.928 10.607 0 2.929-2.93 2.929-7.678 0-10.607l-55.446-55.446c8.589-7.53 21.125-11.741 35.865-13.461l77.38 77.034c-1.613 14.239-5.675 27.078-13.597 36.073l-19.453-19.453c-2.93-2.928-7.678-2.928-10.607 0-2.929 2.93-2.929 7.678 0 10.607l22.13 22.13c-1.653 7.453.638 15.487 6.068 20.835 4.392 4.391 10.169 6.581 15.973 6.581 5.898 0 11.823-2.264 16.342-6.781 0 0 0 0 .001-.001 15.833-15.834 25.455-38.118 28.599-66.233 2.084-18.644 1.328-39.874-2.235-63.231 7.324 1.361 14.583 2.289 21.721 2.753 6.854.481 13.797.604 20.49.331 4.139-.168 7.358-3.659 7.19-7.798-.169-4.139-3.704-7.338-7.798-7.19-6.169.257-12.581.135-18.907-.312-10.803-.702-21.938-2.554-33.175-5.491-4.435-1.133-8.789-2.522-13.234-3.704-15.194-4.135-38.932-9.61-63.643-11.48-38.048-2.88-65.479 3.796-81.527 19.844-2.909 3.041-8.163 3.242-11.098.197-3.006-3.005-2.917-7.983.198-11.098 29.878-29.878 82.876-28.58 126.869-20.449 25.958 4.143 52.467 15.465 78.445 16.602 37.363 2.429 70.443-8.723 93.127-31.404 22.683-22.68 33.838-55.751 31.411-93.121-.691-10.63-2.461-21.454-5.26-32.25 5.798 1.391 11.524 2.638 17.139 3.733 1.932 9.018 3.207 18.059 3.784 26.942 2.73 42.04-10.117 79.541-36.175 105.597-14.971 14.969-33.48 25.535-55.015 31.404-3.996 1.09-6.353 5.212-5.264 9.209 1.077 4.03 5.32 6.356 9.209 5.264 24.084-6.565 44.835-18.432 61.675-35.27 29.155-29.152 43.552-70.767 40.538-117.176-.498-7.677-1.483-15.455-2.918-23.235 23.485 3.519 44.84 4.221 63.604 2.074 28.277-3.233 50.698-12.956 66.64-28.897 8.966-8.963 9.055-23.459.202-32.313zm-345.197 356.098c-3.117 3.114-8.097 3.206-11.102.2-3.042-2.932-2.842-8.192.201-11.1 25.453-25.454 23.014-75.127 15.071-116.257 5.837 1.462 11.287 3.135 17.029 4.716 6.911 40.553 8.239 93.002-21.199 122.441zm-11.908-130.954c3.068 14.505 6.08 33.037 6.481 51.222l-57.848-57.589c16.286.287 33.986 2.684 51.367 6.367zm222.169-321.549 99.119 99.678c-9.391 7.437-22.356 11.206-36.567 12.657l-75.451-75.465c1.468-14.364 5.302-27.458 12.899-36.87zm-7.346 106.772c-2.904-14.013-5.727-31.76-6.217-49.35l55.565 55.574c-17.59-.492-35.336-3.318-49.348-6.224zm-161.473 62.684 12.523 12.523c2.93 2.928 7.677 2.928 10.607 0 2.929-2.93 2.929-7.678 0-10.607l-12.399-12.399c9.327-7.619 20.32-13.318 32.546-16.95l82.952 82.953c-3.631 12.227-9.33 23.22-16.948 32.547l-61.402-61.402c-2.93-2.928-7.678-2.928-10.607 0-2.929 2.93-2.929 7.678 0 10.607l61.525 61.525c-9.109 7.802-19.897 13.704-31.933 17.563l-84.429-84.429c3.859-12.036 9.762-22.823 17.565-31.931zm123.551-24.756c6.232 20.465 9.052 42.022 6.35 62.732l-69.083-69.084c20.715-2.703 42.282.118 62.733 6.352zm-101.511 146.181c-12.128-.627-25.024-3.292-37.531-7.133-6.692-21.398-9.288-43.692-6.071-65.143l71.205 71.205c-8.774 1.318-18.017 1.694-27.603 1.071zm270.907-172.768c-30.823 30.824-86.517 28.37-127.846 20.869-25.433-3.973-52.278-15.098-78.173-16.332-37.369-2.424-70.441 8.734-93.122 31.416-22.683 22.684-33.837 55.757-31.406 93.158.628 10.511 2.35 21.141 5.248 32.067-5.666-1.347-11.495-2.681-17.189-3.795-1.976-9.073-3.211-17.934-3.718-26.723-2.739-42.041 10.104-79.547 36.166-105.608 26.057-26.058 63.558-38.91 105.594-36.18 23.882 1.281 39.869 7.745 65.04 13.431 43.083 9.516 100.352 14.952 128.507-13.204 2.901-3.049 8.182-3.219 11.1-.2 3.043 2.933 2.843 8.192-.201 11.101z" fill="#ffffff" data-original="#000000" style="" class=""/></g></svg>
