<svg width="474" height="464" viewBox="0 0 474 464" fill="none" xmlns="http://www.w3.org/2000/svg">
<path d="M278.296 331.376C276.992 339.36 274.92 347.072 272.128 354.448L297.176 377.144C293.664 384.536 289.664 391.64 285.048 398.312L252.888 387.944C247.816 394.144 242.136 399.816 235.936 404.888L246.304 437.048C239.632 441.664 232.528 445.656 225.136 449.176L202.44 424.128C195.064 426.92 187.36 428.992 179.368 430.296L172.224 463.384C168.184 463.704 164.128 464 160 464C155.872 464 151.816 463.704 147.768 463.384L140.624 430.296C132.64 428.992 124.928 426.92 117.552 424.128L94.856 449.176C87.464 445.664 80.36 441.664 73.688 437.048L84.056 404.888C77.856 399.816 72.184 394.136 67.112 387.944L34.952 398.312C30.336 391.64 26.344 384.536 22.824 377.144L47.872 354.448C45.08 347.072 43.008 339.368 41.704 331.376L8.616 324.232C8.296 320.184 8 316.128 8 312C8 307.872 8.296 303.816 8.616 299.768L41.704 292.624C43.008 284.64 45.08 276.928 47.872 269.552L22.824 246.856C26.336 239.464 30.336 232.36 34.952 225.688L67.112 236.056C72.184 229.856 77.864 224.184 84.064 219.112L73.696 186.952C80.368 182.336 87.472 178.344 94.864 174.824L117.56 199.872C124.936 197.08 132.64 195.008 140.632 193.704L147.776 160.616C151.816 160.296 155.872 160 160 160C164.128 160 168.184 160.296 172.232 160.616L179.376 193.704C187.36 195.008 195.072 197.08 202.448 199.872L225.144 174.824C232.536 178.336 239.64 182.336 246.312 186.952L235.944 219.112C242.144 224.184 247.816 229.864 252.888 236.064L285.048 225.696C289.664 232.368 293.656 239.472 297.176 246.864L272.128 269.56C274.92 276.936 276.992 284.64 278.296 292.632L311.384 299.776C311.704 303.816 312 307.872 312 312C312 316.128 311.704 320.184 311.384 324.232L278.296 331.376ZM160 232C115.816 232 80 267.816 80 312C80 356.184 115.816 392 160 392C204.184 392 240 356.184 240 312C240 267.816 204.184 232 160 232Z" fill="#8B1312"/>
<path d="M389.272 106.44C388.024 110.576 386.392 114.544 384.384 118.28L397.016 142.488C392.752 147.88 387.888 152.744 382.496 157.008L358.288 144.376C354.552 146.392 350.584 148.024 346.448 149.264L338.256 175.344C334.88 175.744 331.472 176 328 176C324.528 176 321.12 175.744 317.752 175.352L309.56 149.272C305.424 148.032 301.456 146.392 297.72 144.384L273.512 157.016C268.12 152.752 263.256 147.888 258.992 142.496L271.624 118.288C269.608 114.552 267.976 110.584 266.736 106.448L240.656 98.256C240.256 94.88 240 91.472 240 88C240 84.528 240.256 81.12 240.648 77.752L266.728 69.56C267.968 65.424 269.608 61.456 271.616 57.72L258.984 33.512C263.248 28.12 268.112 23.256 273.504 18.992L297.712 31.624C301.448 29.608 305.416 27.976 309.552 26.736L317.744 0.656C321.12 0.256 324.528 0 328 0C331.472 0 334.88 0.256001 338.248 0.648001L346.44 26.728C350.576 27.968 354.544 29.608 358.28 31.616L382.488 18.984C387.88 23.248 392.744 28.112 397.008 33.504L384.376 57.712C386.392 61.448 388.024 65.416 389.264 69.552L415.344 77.744C415.744 81.12 416 84.528 416 88C416 91.472 415.744 94.88 415.352 98.248L389.272 106.44ZM328 56C310.328 56 296 70.328 296 88C296 105.672 310.328 120 328 120C345.672 120 360 105.672 360 88C360 70.328 345.672 56 328 56Z" fill="#8B1312"/>
<path d="M453.912 286.968C452.68 291.408 450.944 295.616 448.72 299.544L456.68 316.296C453.064 320.912 448.912 325.064 444.296 328.68L427.544 320.72C423.624 322.944 419.408 324.68 414.968 325.912L408.744 343.416C405.872 343.768 402.968 344 400 344C397.032 344 394.128 343.768 391.256 343.416L385.032 325.912C380.592 324.68 376.384 322.944 372.456 320.72L355.704 328.68C351.088 325.064 346.936 320.912 343.32 316.296L351.28 299.544C349.056 295.624 347.32 291.408 346.088 286.976L328.584 280.752C328.232 277.872 328 274.968 328 272C328 269.032 328.232 266.128 328.584 263.256L346.088 257.032C347.32 252.592 349.056 248.384 351.28 244.464L343.32 227.712C346.936 223.096 351.088 218.944 355.704 215.328L372.456 223.288C376.376 221.064 380.592 219.328 385.032 218.096L391.256 200.592C394.128 200.232 397.032 200 400 200C402.968 200 405.872 200.232 408.744 200.584L414.968 218.088C419.408 219.32 423.616 221.056 427.544 223.28L444.296 215.32C448.912 218.936 453.064 223.088 456.68 227.704L448.72 244.456C450.944 248.376 452.68 252.592 453.912 257.032L471.416 263.256C471.768 266.128 472 269.032 472 272C472 274.968 471.768 277.872 471.416 280.744L453.912 286.968ZM400 248C386.744 248 376 258.744 376 272C376 285.256 386.744 296 400 296C413.256 296 424 285.256 424 272C424 258.744 413.256 248 400 248Z" fill="#2574A9"/>
<path d="M473.568 16.16L425.72 6.59198L416.152 54.432L431.84 57.576L436.152 36.04C443.904 52.168 448 69.944 448 88C448 115.584 438.896 141.52 421.68 163L434.168 173.008C453.408 149 464 118.816 464 88C464 67.048 459.16 46.392 449.952 27.752L470.432 31.848L473.568 16.16Z" fill="#2574A9"/>
<path d="M173.656 82.344L162.344 93.656L173.216 104.528C168.816 104.248 164.408 104 160 104C98.112 104 39.856 131.288 0.176025 178.872L12.464 189.12C49.096 145.192 102.864 120 160 120C164.072 120 168.136 120.232 172.2 120.488L162.344 130.344L173.656 141.656L203.312 112L173.656 82.344Z" fill="#2574A9"/>
</svg>
