<svg width="325" height="322" viewBox="0 0 325 322" fill="none" xmlns="http://www.w3.org/2000/svg">
<path d="M96.7405 316.738L111.939 256.555H213.266L228.465 316.738H96.7405Z" fill="#D5474F"/>
<path d="M5.547 216.434L5.547 25.8559C5.547 20.5355 7.68208 15.4329 11.4825 11.6708C15.283 7.90865 20.4375 5.7951 25.8122 5.7951L299.393 5.7951C304.767 5.7951 309.922 7.90865 313.722 11.6708C317.523 15.4329 319.658 20.5355 319.658 25.8559L319.658 216.434L5.547 216.434Z" fill="#EDE7E9"/>
<path d="M25.8123 25.8559L299.393 25.8559L299.393 196.373L25.8123 196.373L25.8123 25.8559Z" fill="#EAF6FF"/>
<path d="M25.8122 256.555C20.4375 256.555 15.283 254.442 11.4825 250.679C7.68208 246.917 5.547 241.815 5.547 236.494L5.547 216.433L319.658 216.433V236.494C319.658 241.815 317.523 246.917 313.722 250.679C309.922 254.442 304.767 256.555 299.393 256.555L25.8122 256.555Z" fill="#D5474F"/>
<path d="M162.602 45.9167L101.807 76.0079L101.807 146.221L162.602 176.312L223.398 146.221L223.398 76.0079L162.602 45.9167Z" fill="#0089E5"/>
<path d="M223.398 146.221L223.398 76.0079L162.602 45.9167L162.602 176.312L223.398 146.221Z" fill="#2574A9"/>
<path d="M223.398 76.0079L162.602 106.099L101.807 76.0079L162.602 45.9167L223.398 76.0079Z" fill="#01C0FA"/>
<path d="M299.393 0.779907L25.8122 0.779907C19.0964 0.787871 12.6579 3.43236 7.90903 8.13329C3.16019 12.8342 0.488757 19.2078 0.480713 25.8559L0.480713 236.494C0.488757 243.142 3.16019 249.516 7.90903 254.217C12.6579 258.918 19.0964 261.562 25.8122 261.57H105.449L92.7837 311.722H71.409C70.0653 311.722 68.7767 312.251 67.8266 313.191C66.8765 314.132 66.3427 315.407 66.3427 316.737C66.3427 318.068 66.8765 319.343 67.8266 320.284C68.7767 321.224 70.0653 321.753 71.409 321.753L253.796 321.753C255.14 321.753 256.428 321.224 257.378 320.284C258.329 319.343 258.862 318.068 258.862 316.737C258.862 315.407 258.329 314.132 257.378 313.191C256.428 312.251 255.14 311.722 253.796 311.722H232.416L219.75 261.57H299.393C306.109 261.562 312.547 258.918 317.296 254.217C322.045 249.516 324.716 243.142 324.724 236.494L324.724 25.8559C324.716 19.2078 322.045 12.8342 317.296 8.13329C312.547 3.43236 306.109 0.787871 299.393 0.779907V0.779907ZM10.6133 25.8559C10.6133 21.8656 12.2146 18.0387 15.065 15.2171C17.9153 12.3955 21.7812 10.8103 25.8122 10.8103L299.393 10.8103C303.424 10.8103 307.29 12.3955 310.14 15.2171C312.99 18.0387 314.592 21.8656 314.592 25.8559L314.592 211.418L10.6133 211.418L10.6133 25.8559ZM221.975 311.722L103.23 311.722L115.896 261.57L209.309 261.57L221.975 311.722ZM314.592 236.494C314.592 240.485 312.99 244.312 310.14 247.133C307.29 249.955 303.424 251.54 299.393 251.54L25.8122 251.54C21.7812 251.54 17.9153 249.955 15.065 247.133C12.2146 244.312 10.6133 240.485 10.6133 236.494L10.6133 221.449L314.592 221.449V236.494Z" fill="#2574A9"/>
<path d="M299.393 20.8407L25.8122 20.8407C24.4685 20.8407 23.1799 21.3691 22.2298 22.3096C21.2797 23.2501 20.7459 24.5258 20.7459 25.8559L20.7459 196.373C20.7459 197.703 21.2797 198.978 22.2298 199.919C23.1799 200.86 24.4685 201.388 25.8122 201.388L299.393 201.388C300.736 201.388 302.025 200.86 302.975 199.919C303.925 198.978 304.459 197.703 304.459 196.373L304.459 25.8559C304.459 24.5258 303.925 23.2501 302.975 22.3096C302.025 21.3691 300.736 20.8407 299.393 20.8407V20.8407ZM294.326 191.357L30.8785 191.357L30.8785 30.8711L294.326 30.8711L294.326 191.357Z" fill="#2574A9"/>
<path d="M51.1438 241.509H91.6742C93.0179 241.509 94.3065 240.981 95.2566 240.041C96.2067 239.1 96.7405 237.824 96.7405 236.494C96.7405 235.164 96.2067 233.889 95.2566 232.948C94.3065 232.008 93.0179 231.479 91.6742 231.479H51.1438C49.8001 231.479 48.5115 232.008 47.5613 232.948C46.6112 233.889 46.0775 235.164 46.0775 236.494C46.0775 237.824 46.6112 239.1 47.5613 240.041C48.5115 240.981 49.8001 241.509 51.1438 241.509V241.509Z" fill="#2574A9"/>
<path d="M25.8122 241.509H35.9448C37.2885 241.509 38.5771 240.981 39.5272 240.041C40.4774 239.1 41.0111 237.824 41.0111 236.494C41.0111 235.164 40.4774 233.889 39.5272 232.948C38.5771 232.008 37.2885 231.479 35.9448 231.479H25.8122C24.4685 231.479 23.1799 232.008 22.2298 232.948C21.2797 233.889 20.7459 235.164 20.7459 236.494C20.7459 237.824 21.2797 239.1 22.2298 240.041C23.1799 240.981 24.4685 241.509 25.8122 241.509Z" fill="#2574A9"/>
<path d="M99.5422 150.734L160.338 180.826C161.041 181.173 161.816 181.355 162.602 181.355C163.389 181.355 164.164 181.173 164.867 180.826L225.663 150.734C226.509 150.316 227.22 149.671 227.715 148.874C228.21 148.076 228.47 147.157 228.464 146.221L228.464 76.0079C228.443 75.0807 228.172 74.176 227.679 73.387C227.187 72.5981 226.491 71.9533 225.663 71.5193L164.867 41.4281C164.164 41.0803 163.389 40.8992 162.602 40.8992C161.816 40.8992 161.041 41.0803 160.338 41.4281L99.5422 71.5193C98.7149 71.9542 98.0194 72.5991 97.527 73.3879C97.0347 74.1767 96.7632 75.081 96.7405 76.0079L96.7405 146.221C96.7353 147.157 96.995 148.076 97.4902 148.874C97.9853 149.671 98.6961 150.316 99.5422 150.734V150.734ZM106.873 84.1225L157.536 109.198L157.536 168.197L106.873 143.121L106.873 84.1225ZM167.669 168.197L167.669 109.198L218.332 84.1225L218.332 143.121L167.669 168.197ZM162.602 51.5237L212.07 76.0079L162.602 100.492L113.135 76.0079L162.602 51.5237Z" fill="#2574A9"/>
</svg>
