<svg width="482" height="482" viewBox="0 0 482 482" fill="none" xmlns="http://www.w3.org/2000/svg">
<g clip-path="url(#clip0)">
<path d="M158.118 90.353L176.189 66.266C179.028 62.471 183.5 60.235 188.236 60.235H293.648C298.384 60.235 302.856 62.471 305.695 66.266L323.766 90.353V120.471H391.531L327.531 43.663C320.371 35.079 309.784 30.118 298.603 30.118H183.283C172.109 30.118 161.515 35.08 154.37 43.663L90.355 120.471H158.12V90.353H158.118Z" fill="#565757"/>
<path d="M30.118 120.471C13.485 120.471 0 133.956 0 150.588V421.647C0 438.279 13.485 451.765 30.118 451.765H451.765C468.397 451.765 481.883 438.28 481.883 421.647V150.588C481.883 133.956 468.398 120.47 451.765 120.47H30.118V120.471Z" fill="#2574A9"/>
<path d="M158.118 90.353V120.471H90.353L115.426 90.353H158.118Z" fill="#E8EAF6"/>
<path d="M323.765 90.353V120.471H391.529L366.456 90.353H323.765Z" fill="#E8EAF6"/>
<path d="M30.118 120.471C13.485 120.471 0 133.956 0 150.588V421.647C0 429.854 3.305 437.263 8.621 442.699L330.85 120.471H30.118Z" fill="#8B1312"/>
<path d="M346.353 262.031H397.425C388.134 240.76 366.938 225.882 342.249 225.882C317.545 225.882 296.35 240.76 287.058 262.031H193.618C184.312 240.76 163.116 225.882 138.427 225.882C113.723 225.882 92.528 240.76 83.236 262.031H135.528V310.212H83.238C92.529 331.468 113.725 346.353 138.429 346.353C163.118 346.353 184.313 331.467 193.62 310.212H287.06C296.351 331.468 317.547 346.353 342.251 346.353C366.94 346.353 388.135 331.467 397.427 310.212H346.355V262.031H346.353Z" fill="white"/>
</g>
<defs>
<clipPath id="clip0">
<rect width="481.882" height="481.882" fill="white"/>
</clipPath>
</defs>
</svg>
