<?xml version="1.0"?>
<svg xmlns="http://www.w3.org/2000/svg" xmlns:xlink="http://www.w3.org/1999/xlink" xmlns:svgjs="http://svgjs.com/svgjs" version="1.1" width="512" height="512" x="0" y="0" viewBox="0 0 512 512" style="enable-background:new 0 0 512 512" xml:space="preserve" class=""><g><path xmlns="http://www.w3.org/2000/svg" d="m477.663 127.698c-17.137-4.033-39.521-6.535-63.663-7.161v-22.498c0-13.51-16.331-23.768-49.928-31.357-28.952-6.541-67.333-10.143-108.072-10.143-22.168 0-43.553 1.054-63.559 3.131-4.12.428-7.113 4.114-6.686 8.234.428 4.121 4.12 7.107 8.234 6.686 19.494-2.024 40.357-3.051 62.01-3.051 39.66 0 76.867 3.471 104.767 9.774 31.43 7.101 38.234 15.121 38.234 16.726s-6.804 9.625-38.233 16.726c-54.581 12.934-154.952 12.934-209.533 0-31.43-7.101-38.234-15.122-38.234-16.726 0-1.861 8.204-10.983 46.106-18.379 4.065-.793 6.718-4.732 5.925-8.798-.794-4.064-4.723-6.719-8.798-5.925-39.185 7.647-58.233 18.474-58.233 33.102v22.498c-24.141.626-46.525 3.127-63.663 7.161-23.106 5.438-34.337 13.073-34.337 23.341v224c0 10.268 11.231 17.902 34.337 23.341 17.138 4.033 39.522 6.535 63.663 7.16v8.499c0 13.51 16.331 23.768 49.928 31.357 56.735 13.42 159.409 13.42 216.145 0 33.597-7.59 49.928-17.848 49.928-31.357v-8.498c9.881-.255 19.505-.821 28.689-1.702 4.124-.396 7.146-4.058 6.751-8.181-.396-4.124-4.078-7.146-8.181-6.751-8.721.835-17.864 1.378-27.26 1.628v-40.995c32.358-1.402 57.903-3.262 83-13.427v38.411c-1.128 1.501-6.861 5.509-22.772 9.253-4.032.949-6.531 4.987-5.583 9.019.933 4.063 5.092 6.54 9.019 5.583 23.105-5.438 34.336-13.073 34.336-23.34v-224c0-10.268-11.231-17.903-34.337-23.341zm19.337 134.826c-13.508 11.482-57.35 15.299-83 16.011v-40.995c32.358-1.402 57.903-3.262 83-13.427zm-399-39.989c-25.507-.683-69.635-4.561-83-16.011v-38.411c25.101 10.164 50.637 12.024 83 13.427zm-83 39.989v-38.411c25.1 10.165 50.639 12.024 83 13.427v40.996c-25.507-.684-69.635-4.562-83-16.012zm98 12.957c8.21 4.546 19.817 8.502 34.928 11.916 56.735 13.42 159.409 13.42 216.145 0 15.111-3.414 26.717-7.369 34.928-11.916v59.558c0 1.604-6.804 9.625-38.233 16.726-54.581 12.934-154.952 12.934-209.533 0-31.431-7.101-38.235-15.122-38.235-16.726zm384-68.957c-13.508 11.482-57.35 15.299-83 16.011v-40.995c32.36-1.403 57.903-3.262 83-13.427zm-26.783-65.116c17.189 3.61 24.253 7.667 26.317 9.631-15.606 11.288-56.018 14.642-82.534 15.497v-30.995c20.986.566 40.719 2.612 56.217 5.867zm-322.289-12.012c56.735 13.42 159.409 13.42 216.145 0 15.111-3.414 26.717-7.369 34.928-11.916v59.558c0 2.252-10.371 12.98-58.283 20.516-4.092.644-6.888 4.482-6.244 8.574.625 4.113 4.573 6.901 8.574 6.244 25.499-4.011 44.175-9.339 55.953-15.927v59.593c0 1.604-6.804 9.625-38.233 16.726-54.581 12.934-154.952 12.934-209.533 0-31.431-7.1-38.235-15.121-38.235-16.725v-59.558c8.21 4.546 19.817 8.502 34.928 11.916 28.952 6.54 67.333 10.143 108.072 10.143 17.762 0 35.163-.685 51.72-2.035 4.129-.337 7.202-3.957 6.866-8.085-.338-4.129-3.959-7.188-8.085-6.866-16.153 1.318-33.145 1.986-50.501 1.986-39.66 0-76.867-3.471-104.767-9.774-31.429-7.102-38.233-15.123-38.233-16.727v-59.558c8.21 4.546 19.817 8.502 34.928 11.915zm-106.145 12.012c15.498-3.255 35.231-5.301 56.217-5.866v30.994c-26.401-.833-67.044-4.233-82.534-15.496 2.064-1.965 9.128-6.023 26.317-9.632zm0 243.262c-18.876-3.963-25.54-8.466-26.783-10.145v-38.412c5.078 2.332 11.456 4.403 19.17 6.227 3.924.961 8.088-1.512 9.024-5.573.953-4.031-1.542-8.071-5.573-9.024-15.8-3.735-21.498-7.723-22.621-9.217v-38.411c25.1 10.165 50.639 12.024 83 13.427v40.997c-9.063-.242-17.896-.756-26.338-1.542-4.111-.379-7.778 2.647-8.163 6.772-.384 4.124 2.648 7.779 6.772 8.163 8.894.828 18.195 1.364 27.729 1.611v40.994c-20.986-.567-40.719-2.612-56.217-5.867zm318.984 46.094c-54.581 12.934-154.952 12.934-209.533 0-31.43-7.1-38.234-15.121-38.234-16.725v-59.558c8.21 4.546 19.817 8.502 34.928 11.916 56.735 13.42 159.409 13.42 216.145 0 15.111-3.414 26.717-7.369 34.928-11.916v59.558c-.001 1.604-6.805 9.625-38.234 16.725zm109.45-102.094c-15.498 3.255-35.231 5.301-56.217 5.866v-40.996c32.358-1.402 57.903-3.262 83-13.427v38.411c-1.244 1.679-7.907 6.182-26.783 10.146z" fill="#ffffff" data-original="#000000" style="" class=""/></g></svg>
