<svg width="512" height="456" viewBox="0 0 512 456" fill="none" xmlns="http://www.w3.org/2000/svg">
<path d="M296.081 288.693H215.92C202.944 288.693 192.388 299.25 192.388 312.225V376.354C192.388 389.33 202.945 399.886 215.92 399.886H296.081C309.057 399.886 319.613 389.329 319.613 376.354V312.225C319.613 299.25 309.056 288.693 296.081 288.693ZM304.613 376.355C304.613 381.06 300.785 384.887 296.081 384.887H215.92C211.215 384.887 207.388 381.059 207.388 376.355V312.226C207.388 307.521 211.216 303.694 215.92 303.694H296.081C300.786 303.694 304.613 307.522 304.613 312.226V376.355Z" fill="white"/>
<path d="M432.355 192.5H320.132C315.99 192.5 312.632 195.858 312.632 200C312.632 204.142 315.99 207.5 320.132 207.5H432.355C437.06 207.5 440.887 211.328 440.887 216.032V264.129C440.887 268.271 444.245 271.629 448.387 271.629C452.529 271.629 455.887 268.271 455.887 264.129V216.032C455.887 203.056 445.33 192.5 432.355 192.5Z" fill="white"/>
<path d="M319.613 63.726C319.613 28.65 291.076 0.113037 256 0.113037C220.924 0.113037 192.387 28.65 192.387 63.726C192.387 96.264 216.948 123.157 248.5 126.882V192.5H79.645C66.669 192.5 56.113 203.057 56.113 216.032V264.129C56.113 268.271 59.471 271.629 63.613 271.629C67.755 271.629 71.113 268.271 71.113 264.129V216.032C71.113 211.327 74.941 207.5 79.645 207.5H248.5V264.129C248.5 268.271 251.858 271.629 256 271.629C260.142 271.629 263.5 268.271 263.5 264.129V207.5H288.064C292.206 207.5 295.564 204.142 295.564 200C295.564 195.858 292.206 192.5 288.064 192.5H263.5V126.882C295.052 123.157 319.613 96.264 319.613 63.726ZM256 112.339C229.195 112.339 207.387 90.531 207.387 63.726C207.387 36.921 229.195 15.113 256 15.113C282.805 15.113 304.613 36.921 304.613 63.726C304.613 90.532 282.805 112.339 256 112.339Z" fill="white"/>
<path d="M488.468 288.693H408.307C395.331 288.693 384.775 299.25 384.775 312.225V376.354C384.775 389.33 395.332 399.886 408.307 399.886H488.468C501.444 399.886 512 389.329 512 376.354V312.225C512 299.25 501.443 288.693 488.468 288.693ZM497 376.355C497 381.06 493.172 384.887 488.468 384.887H408.307C403.602 384.887 399.775 381.059 399.775 376.355V312.226C399.775 307.521 403.603 303.694 408.307 303.694H488.468C493.173 303.694 497 307.522 497 312.226V376.355Z" fill="white"/>
<path d="M103.693 288.693H23.532C10.557 288.693 0 299.25 0 312.226V376.355C0 389.331 10.557 399.887 23.532 399.887H31.548C35.69 399.887 39.048 396.529 39.048 392.387C39.048 388.245 35.69 384.887 31.548 384.887H23.532C18.827 384.887 15 381.059 15 376.355V312.226C15 307.521 18.828 303.694 23.532 303.694H103.693C108.398 303.694 112.225 307.522 112.225 312.226V376.355C112.225 381.06 108.397 384.887 103.693 384.887H63.612C59.47 384.887 56.112 388.245 56.112 392.387C56.112 396.529 59.47 399.887 63.612 399.887H103.693C116.669 399.887 127.225 389.33 127.225 376.355V312.226C127.226 299.25 116.669 288.693 103.693 288.693Z" fill="white"/>
</svg>
