<svg width="512" height="512" viewBox="0 0 512 512" fill="none" xmlns="http://www.w3.org/2000/svg">
<path d="M457.371 97.9367H473.19C478.709 97.9367 483.184 93.4617 483.184 87.9433C483.184 82.4249 478.709 77.9498 473.19 77.9498H435.215C429.697 77.9498 425.222 82.4249 425.222 87.9433V125.918C425.222 131.437 429.697 135.912 435.215 135.912C440.734 135.912 445.209 131.437 445.209 125.918V114.923C475.531 155.517 492.013 204.772 492.013 256C492.013 386.139 386.139 492.013 256 492.013C125.861 492.013 19.9869 386.139 19.9869 256C19.9869 125.861 125.861 19.9869 256 19.9869C265.625 19.9869 275.311 20.5715 284.793 21.7237C290.265 22.3853 295.254 18.4889 295.92 13.0095C296.586 7.53106 292.685 2.54833 287.206 1.88276C276.926 0.633584 266.428 0 256 0C187.62 0 123.332 26.6285 74.9808 74.9808C26.6285 123.332 0 187.62 0 256C0 324.38 26.6285 388.668 74.9808 437.019C123.332 485.371 187.62 512 256 512C324.38 512 388.668 485.371 437.019 437.019C485.371 388.668 512 324.38 512 256C512 198.297 492.723 142.901 457.371 97.9367Z" fill="white"/>
<path d="M108.401 150.914C103.737 147.962 97.564 149.351 94.6109 154.012C71.7969 190.044 61.6975 233.378 66.1736 276.031C70.7156 319.316 90.1978 360.136 121.032 390.97C158.242 428.181 207.121 446.787 256.001 446.787C304.881 446.787 353.759 428.182 390.97 390.97C465.393 316.548 465.393 195.454 390.97 121.033C360.184 90.2468 319.431 70.7715 276.218 66.1945C233.644 61.6825 190.357 71.7029 154.34 94.405C149.67 97.3481 148.272 103.519 151.214 108.188C154.157 112.858 160.328 114.256 164.997 111.314C232.89 68.522 320 78.3286 376.837 135.165C443.466 201.795 443.466 310.207 376.837 376.837C310.208 443.467 201.794 443.467 135.165 376.837C79.1141 320.785 69.1606 231.571 111.499 164.705C114.45 160.041 113.064 153.867 108.401 150.914Z" fill="white"/>
<path d="M385.916 266.155H398.24C403.758 266.155 408.233 261.68 408.233 256.162C408.233 250.644 403.758 246.168 398.24 246.168H385.916C380.397 246.168 375.922 250.644 375.922 256.162C375.922 261.68 380.396 266.155 385.916 266.155Z" fill="white"/>
<path d="M103.767 255.838C103.767 261.357 108.242 265.832 113.76 265.832H126.084C131.603 265.832 136.078 261.357 136.078 255.838C136.078 250.32 131.603 245.845 126.084 245.845H113.76C108.242 245.845 103.767 250.319 103.767 255.838Z" fill="white"/>
<path d="M266.155 126.084V113.76C266.155 108.242 261.68 103.767 256.162 103.767C250.644 103.767 246.168 108.242 246.168 113.76V126.084C246.168 131.603 250.644 136.078 256.162 136.078C261.68 136.078 266.155 131.603 266.155 126.084Z" fill="white"/>
<path d="M245.845 385.916V398.24C245.845 403.758 250.32 408.233 255.838 408.233C261.357 408.233 265.832 403.758 265.832 398.24V385.916C265.832 380.397 261.357 375.922 255.838 375.922C250.32 375.922 245.845 380.396 245.845 385.916Z" fill="white"/>
<path d="M205.909 191.775C202.005 187.874 195.68 187.874 191.775 191.775C187.873 195.678 187.873 202.005 191.775 205.909L225.644 239.778C223.049 244.614 221.573 250.138 221.573 256C221.573 274.984 237.016 290.427 256 290.427C274.984 290.427 290.427 274.984 290.427 256C290.427 250.138 288.95 244.614 286.356 239.778L354.694 171.44C358.597 167.537 358.597 161.209 354.694 157.306C350.791 153.404 344.465 153.404 340.561 157.306L272.222 225.644C267.386 223.049 261.862 221.573 256 221.573C250.138 221.573 244.614 223.05 239.778 225.644L205.909 191.775ZM270.441 256C270.441 263.963 263.963 270.441 256 270.441C248.037 270.441 241.559 263.963 241.559 256C241.559 248.037 248.037 241.559 256 241.559C263.963 241.559 270.441 248.037 270.441 256Z" fill="white"/>
<path d="M135.159 135.159C137.028 133.3 138.096 130.722 138.096 128.094C138.096 125.466 137.028 122.897 135.159 121.029C133.301 119.171 130.731 118.1 128.094 118.1C125.466 118.1 122.887 119.17 121.029 121.029C119.171 122.887 118.1 125.466 118.1 128.094C118.1 130.732 119.17 133.3 121.029 135.159C122.887 137.017 125.466 138.087 128.094 138.087C130.731 138.087 133.301 137.017 135.159 135.159Z" fill="white"/>
<path d="M325.225 29.8585C327.864 29.8585 330.442 28.7982 332.3 26.9304C334.159 25.0716 335.229 22.5023 335.229 19.865C335.229 17.2367 334.16 14.6584 332.3 12.7997C330.442 10.9419 327.864 9.87158 325.225 9.87158C322.596 9.87158 320.018 10.9409 318.16 12.7997C316.301 14.6584 315.231 17.2367 315.231 19.865C315.231 22.5033 316.3 25.0716 318.16 26.9304C320.018 28.7982 322.596 29.8585 325.225 29.8585Z" fill="white"/>
</svg>
