<svg width="512" height="512" viewBox="0 0 512 512" fill="none" xmlns="http://www.w3.org/2000/svg">
<path d="M249.752 320.603C249.252 321.103 248.748 321.596 248.241 322.084L189.916 263.759C190.404 263.251 190.898 262.747 191.397 262.248L216.213 237.432L194.994 216.213L170.178 241.029C141.754 269.452 127.288 308.13 129.623 347.515C90.238 345.18 51.56 359.646 23.138 388.071L0 411.207L21.219 432.426L44.356 409.289C44.856 408.789 45.36 408.296 45.867 407.807L104.192 466.132C103.703 466.64 103.21 467.144 102.71 467.643L79.573 490.78L100.793 512L123.93 488.863C152.354 460.439 166.82 421.761 164.485 382.378C203.869 384.713 242.548 370.247 270.971 341.823L295.787 317.007L274.568 295.788L249.752 320.603ZM70.463 389.965C89.781 379.71 111.868 375.453 133.989 378.01C136.545 400.129 132.289 422.217 122.034 441.536L70.463 389.965ZM160.118 351.882C157.562 329.762 161.819 307.674 172.074 288.355L223.645 339.926C204.327 350.181 182.239 354.439 160.118 351.882V351.882Z" fill="#2574A9"/>
<path d="M490.781 79.574L467.644 102.711C467.144 103.211 466.64 103.704 466.133 104.193L407.808 45.868C408.297 45.36 408.79 44.856 409.29 44.357L432.427 21.22L411.207 0L388.07 23.137C359.646 51.56 345.18 90.238 347.515 129.623C308.131 127.288 269.452 141.754 241.03 170.178L216.214 194.994L237.433 216.213L262.249 191.397C262.749 190.897 263.253 190.404 263.76 189.916L322.085 248.242C321.597 248.749 321.104 249.253 320.604 249.753L295.788 274.569L317.007 295.788L341.823 270.972C370.247 242.548 384.713 203.87 382.378 164.487C421.761 166.822 460.44 152.356 488.864 123.931L512 100.793L490.781 79.574ZM288.355 172.074C307.674 161.819 329.762 157.563 351.881 160.119C354.437 182.239 350.18 204.327 339.926 223.646L288.355 172.074ZM378.01 133.989C375.454 111.869 379.711 89.782 389.966 70.463L441.537 122.034C422.219 132.289 400.132 136.545 378.01 133.989V133.989Z" fill="#8B1312"/>
<path d="M138.464 159.716L159.679 138.5L195.039 173.859L173.823 195.075L138.464 159.716Z" fill="black"/>
<path d="M81.8912 103.131L103.107 81.9152L138.467 117.275L117.251 138.491L81.8912 103.131Z" fill="black"/>
<path d="M373.508 394.81L394.724 373.594L430.084 408.954L408.868 430.17L373.508 394.81Z" fill="black"/>
<path d="M316.937 338.226L338.152 317.01L373.512 352.37L352.296 373.586L316.937 338.226Z" fill="black"/>
</svg>
