<svg width="512" height="512" viewBox="0 0 512 512" fill="none" xmlns="http://www.w3.org/2000/svg">
<g clip-path="url(#clip0)">
<path d="M226.605 197.184L134.414 197.125L88.2695 276.934L134.312 356.805L226.504 356.863L272.648 277.051L226.605 197.184Z" fill="#8B1312"/>
<path d="M364.605 117.625L272.418 117.566L226.273 197.375L272.316 277.242L364.508 277.301L410.652 197.492L364.605 117.625Z" fill="#E6E6E6"/>
<path d="M364.605 276.918L272.418 276.859L226.273 356.668L272.316 436.539L364.508 436.598L410.652 356.785L364.605 276.918Z" fill="#2574A9"/>
<path d="M501.996 347.199C496.484 347.199 491.992 351.68 491.992 357.191C491.992 359.863 493.035 362 494.914 363.891C496.805 365.781 499.316 366.437 501.988 366.437H501.996C507.508 366.437 511.988 362.34 512 356.824C512 351.305 507.52 347.199 501.996 347.199V347.199Z" fill="black"/>
<path d="M461.996 347.168L416.547 347.141L376.137 277.031L419.23 202.5C421.02 199.402 421.023 195.59 419.238 192.496L376.285 117.992L405.855 71.3632C408.812 66.6952 407.43 60.5155 402.762 57.5585C398.098 54.5976 391.918 55.9804 388.957 60.6484L359.129 107.519L272.344 107.355H272.34C268.766 107.355 265.465 109.363 263.68 112.453L220.555 186.891L140.547 186.695L119.719 148.543C117.969 145.324 114.598 143.344 110.926 143.344C109.266 143.344 107.613 143.769 106.145 144.57C103.801 145.851 102.094 147.965 101.34 150.535C100.582 153.098 100.871 155.797 102.152 158.148L123.055 196.387L82 267.406H10.0039C4.47656 267.406 0 271.887 0 277.41C0 282.934 4.47656 287.414 10.0039 287.414H82.7891L122.625 356.601L98.1406 391.898C96.6211 394.086 96.0391 396.766 96.5117 399.387C96.9922 402.019 98.4609 404.316 100.652 405.836C102.332 407.008 104.301 407.633 106.344 407.633C109.625 407.633 112.707 406.035 114.574 403.344L139.957 366.797L220.52 366.851L260.812 436.746L236.082 476.629C233.184 481.32 234.633 487.5 239.316 490.402C240.906 491.383 242.727 491.902 244.578 491.902C248.066 491.902 251.258 490.133 253.09 487.172L278.203 446.648L357.945 446.789L401.199 521.816C403.055 525.031 406.414 526.824 409.875 526.824C411.57 526.824 413.289 526.394 414.863 525.488C419.648 522.726 421.293 516.609 418.531 511.824L375.598 437.355L416.168 367.148L461.984 367.176C467.496 367.176 471.977 362.695 471.988 357.184C471.988 354.512 470.949 352 469.059 350.109C467.176 348.219 464.664 347.18 461.996 347.168V347.168ZM278.105 127.574L358.746 127.625L399.023 197.484L358.879 266.914L278.238 266.863L237.965 197L278.105 127.574ZM220.316 346.855L140.016 346.805L99.7383 276.941L140.105 207.133L220.289 207.184L260.625 277.141L220.316 346.855ZM358.656 426.59L278.02 426.539L237.914 356.973L278.227 287.25L358.969 287.301L399.023 356.777L358.656 426.59Z" fill="black"/>
<path d="M91.7774 128.363H91.7891C93.4493 128.363 95.1016 127.871 96.5586 127.07C98.9102 125.789 100.613 123.648 101.371 121.086C102.121 118.516 101.832 115.801 100.551 113.461C98.8008 110.238 95.4297 108.23 91.7696 108.23C90.1094 108.23 88.4493 108.648 86.9883 109.457C84.6368 110.73 82.9258 112.848 82.1758 115.406C81.4258 117.976 81.7149 120.738 82.9961 123.078C84.7461 126.301 88.1172 128.363 91.7774 128.363Z" fill="black"/>
<path d="M89.2383 422.281C87.5586 421.109 85.5859 420.492 83.5351 420.492C80.2539 420.492 77.1836 422.102 75.3125 424.793C72.1718 429.324 73.2929 435.566 77.8242 438.719C79.5039 439.887 81.4765 440.508 83.5273 440.508C86.8086 440.508 89.8789 438.898 91.75 436.207C94.8906 431.676 93.7695 425.434 89.2383 422.281Z" fill="black"/>
<path d="M228.781 507.406C227.191 506.426 225.371 505.906 223.52 505.906C220.027 505.906 216.848 507.68 215.008 510.637C213.598 512.91 213.156 515.598 213.766 518.203C214.379 520.801 215.969 523.012 218.238 524.414C219.828 525.391 221.641 525.914 223.5 525.914C226.992 525.914 230.172 524.141 232.012 521.184C233.422 518.91 233.863 516.23 233.254 513.629C232.633 511.027 231.051 508.82 228.781 507.406V507.406Z" fill="black"/>
<path d="M161.781 128.191C163.047 128.926 164.496 129.293 166.301 129.293C168.031 129.293 169.676 128.926 170.977 128.191C172.277 127.457 173.055 126.457 173.055 125.191V96.3515H195.062V125.191C195.062 126.457 195.781 127.457 197.051 128.191C198.316 128.926 199.895 129.293 201.695 129.293C203.43 129.293 204.883 128.926 206.184 128.191C207.484 127.457 208.066 126.457 208.066 125.191V60.1366C208.066 58.8046 207.52 57.8007 206.254 57.1327C204.984 56.4687 203.496 56.1327 201.695 56.1327C199.895 56.1327 198.293 56.4687 197.027 57.1327C195.762 57.8007 195.062 58.8046 195.062 60.1366V86.3476H173.055V60.1366C173.055 58.8046 172.25 57.8007 170.988 57.1327C169.719 56.4687 168.098 56.1327 166.297 56.1327C164.496 56.1327 163.09 56.4687 161.824 57.1327C160.555 57.8007 160.051 58.8046 160.051 60.1366V125.187C160.051 126.457 160.512 127.457 161.781 128.191Z" fill="black"/>
<path d="M478.406 234.277C477.137 233.609 475.68 233.273 473.879 233.273C472.078 233.273 470.43 233.609 469.164 234.277C467.895 234.941 467.148 235.945 467.148 237.277V263.402H445.141V237.277C445.141 235.945 444.402 234.941 443.137 234.277C441.867 233.609 440.285 233.273 438.48 233.273C436.68 233.273 435.227 233.609 433.957 234.277C432.688 234.941 432.137 235.945 432.137 237.277V302.328C432.137 303.598 432.664 304.598 433.93 305.332C435.199 306.066 436.68 306.434 438.484 306.434C440.215 306.434 441.813 306.066 443.113 305.332C444.414 304.598 445.141 303.598 445.141 302.328V273.406H467.148V302.332C467.148 303.598 467.934 304.598 469.203 305.332C470.469 306.066 472.082 306.434 473.883 306.434C475.617 306.434 477.016 306.066 478.316 305.332C479.617 304.598 480.152 303.598 480.152 302.332V237.277C480.148 235.945 479.672 234.941 478.406 234.277Z" fill="black"/>
<path d="M46.3438 327.75C48.1445 327.75 49.625 328 50.957 328.5C52.293 329 53.25 329.602 53.918 330.301C54.5859 331.004 55.1133 331.871 55.5469 332.906C55.9805 333.941 56.2344 334.773 56.3359 335.406C56.4375 336.043 56.5117 336.793 56.582 337.66C56.6484 340.394 58.8125 341.762 63.082 341.762C65.418 341.762 67.0859 341.312 68.0859 340.41C69.0859 339.508 69.5859 337.824 69.5859 335.355C69.5859 329.621 67.3672 325.016 62.9336 321.547C58.4922 318.078 52.7734 316.34 45.7695 316.34C38.8945 316.34 33.5039 318.195 29.2344 321.894C24.9609 325.598 23.0078 331.387 23.0078 339.258V367.184C23.0078 375.055 24.9453 380.844 29.1836 384.547C33.418 388.246 38.8867 390.102 45.7578 390.102C52.8281 390.102 58.5391 388.297 62.9766 384.695C67.4141 381.094 69.6094 376.289 69.6094 370.285C69.6094 367.816 69.0781 366.133 68.0469 365.23C67.0117 364.332 65.3203 363.879 62.9883 363.879C58.918 363.879 56.7812 365.246 56.5781 367.98C56.5117 369.383 56.3594 370.57 56.125 371.535C55.8906 372.504 55.457 373.605 54.8242 374.84C54.1914 376.074 53.1563 377.023 51.7227 377.691C50.2852 378.359 48.6797 378.691 46.543 378.691C39.4023 378.691 36.0117 374.855 36.0117 367.184V339.262C36.0117 331.59 39.3398 327.75 46.3438 327.75V327.75Z" fill="black"/>
</g>
<defs>
<clipPath id="clip0">
<rect width="512" height="512" fill="white"/>
</clipPath>
</defs>
</svg>
