<svg width="512" height="512" viewBox="0 0 512 512" fill="none" xmlns="http://www.w3.org/2000/svg">
<path d="M473.91 199.735C478.612 218.002 482 236.928 482 256C482 380.072 380.072 482 256 482C183.832 482 115.289 447.087 72.922 391H105V361H33.281L15.454 432.367L44.546 439.633L51.406 412.228C99.512 473.86 175.743 512 256 512C396.61 512 512 396.61 512 256C512 234.408 508.305 212.963 502.973 192.265L473.91 199.735Z" fill="#8B1312"/>
<path d="M8.027 319.735L37.09 312.264C32.388 293.998 30 275.072 30 256C30 131.928 131.928 30 256 30C328.124 30 395.504 64.975 437.877 121H406V151H477.719L495.546 79.633L466.454 72.367L459.58 99.829C411.477 38.183 336.268 0 256 0C115.39 0 0 115.39 0 256C0 277.592 2.695 299.037 8.027 319.735Z" fill="#8B1312"/>
<path d="M256 351C198.1 351 151 337.5 151 321V346C151 377.199 203.8 391 256 391C308.2 391 361 377.199 361 346V321C361 337.5 313.9 351 256 351Z" fill="#2574A9"/>
<path d="M361 251C361 267.5 313.9 281 256 281C198.1 281 151 267.5 151 251V291C151 307.5 198.1 321 256 321C313.9 321 361 307.5 361 291V251Z" fill="#2574A9"/>
<path d="M361 181C361 197.5 313.9 211 256 211C198.1 211 151 197.5 151 181V221C151 237.5 198.1 251 256 251C313.9 251 361 237.5 361 221V181Z" fill="#2574A9"/>
<path d="M256 181C313.99 181 361 167.569 361 151C361 134.431 313.99 121 256 121C198.01 121 151 134.431 151 151C151 167.569 198.01 181 256 181Z" fill="#2574A9"/>
</svg>
