<?xml version="1.0"?>
<svg xmlns="http://www.w3.org/2000/svg" xmlns:xlink="http://www.w3.org/1999/xlink" xmlns:svgjs="http://svgjs.com/svgjs" version="1.1" width="512" height="512" x="0" y="0" viewBox="0 0 512 512" style="enable-background:new 0 0 512 512" xml:space="preserve" class=""><g><path xmlns="http://www.w3.org/2000/svg" d="m256 362.667969c-58.816406 0-106.667969-47.851563-106.667969-106.667969s47.851563-106.667969 106.667969-106.667969 106.667969 47.851563 106.667969 106.667969-47.851563 106.667969-106.667969 106.667969zm0-181.335938c-41.171875 0-74.667969 33.496094-74.667969 74.667969s33.496094 74.667969 74.667969 74.667969 74.667969-33.496094 74.667969-74.667969-33.496094-74.667969-74.667969-74.667969zm0 0" fill="#ffffff" data-original="#000000" style="" class=""/><path xmlns="http://www.w3.org/2000/svg" d="m256 469.332031c-117.632812 0-213.332031-95.699219-213.332031-213.332031s95.699219-213.332031 213.332031-213.332031 213.332031 95.699219 213.332031 213.332031-95.699219 213.332031-213.332031 213.332031zm0-394.664062c-99.988281 0-181.332031 81.34375-181.332031 181.332031s81.34375 181.332031 181.332031 181.332031 181.332031-81.34375 181.332031-181.332031-81.34375-181.332031-181.332031-181.332031zm0 0" fill="#ffffff" data-original="#000000" style="" class=""/><path xmlns="http://www.w3.org/2000/svg" d="m256 106.667969c-8.832031 0-16-7.167969-16-16v-74.667969c0-8.832031 7.167969-16 16-16s16 7.167969 16 16v74.667969c0 8.832031-7.167969 16-16 16zm0 0" fill="#ffffff" data-original="#000000" style="" class=""/><path xmlns="http://www.w3.org/2000/svg" d="m256 512c-8.832031 0-16-7.167969-16-16v-74.667969c0-8.832031 7.167969-16 16-16s16 7.167969 16 16v74.667969c0 8.832031-7.167969 16-16 16zm0 0" fill="#ffffff" data-original="#000000" style="" class=""/><path xmlns="http://www.w3.org/2000/svg" d="m90.667969 272h-74.667969c-8.832031 0-16-7.167969-16-16s7.167969-16 16-16h74.667969c8.832031 0 16 7.167969 16 16s-7.167969 16-16 16zm0 0" fill="#ffffff" data-original="#000000" style="" class=""/><path xmlns="http://www.w3.org/2000/svg" d="m496 272h-74.667969c-8.832031 0-16-7.167969-16-16s7.167969-16 16-16h74.667969c8.832031 0 16 7.167969 16 16s-7.167969 16-16 16zm0 0" fill="#ffffff" data-original="#000000" style="" class=""/></g></svg>
