<?xml version="1.0"?>
<svg xmlns="http://www.w3.org/2000/svg" xmlns:xlink="http://www.w3.org/1999/xlink" xmlns:svgjs="http://svgjs.com/svgjs" version="1.1" width="512" height="512" x="0" y="0" viewBox="0 0 511.985 511.985" style="enable-background:new 0 0 512 512" xml:space="preserve"><g><g xmlns="http://www.w3.org/2000/svg"><path d="m429.676 133.674c15.445 4.033 31.761-5.352 35.912-20.702 6.718-24.847-21.046-45.383-43-32.871-16.521 9.417-19.797 32.805-5.991 46.222l-44.307 75.428-90.672-.254-47.064-81.347c-1.339-2.314-3.809-3.741-6.483-3.744l-94.746-.114-38.38-66.336c3.526-3.552 6.086-7.973 7.413-12.942 4.152-15.552-5.16-31.681-20.759-35.953-7.602-2.083-15.535-1.078-22.339 2.829-6.758 3.881-11.587 10.165-13.597 17.695-2.501 9.369 11.992 13.238 14.492 3.869 2.012-7.538 9.997-11.979 17.482-9.927 7.673 2.102 12.262 10.005 10.229 17.617-1.987 7.441-10.064 11.961-17.482 9.927-9.352-2.563-13.316 11.906-3.963 14.467 5.195 1.415 10.388 1.414 15.58-.004l38.335 66.258-34.029 58.039c-15.761-4.902-32.946 4.475-37.232 20.32-2.034 7.522-1.005 15.381 2.898 22.127 6.952 12.017 22.032 17.507 35.097 13.001l34.882 60.291c1.339 2.314 3.809 3.741 6.483 3.744l94.697.114 14.175 24.499c4.699 8.12 17.829.863 12.983-7.512l-14.144-24.446 45.423-77.473 90.667.255 32.618 56.586c-11.39 11.092-11.516 30.211-.233 41.448l-32.957 56.017-90.674.677-10.08-17.423c-4.856-8.393-17.84-.882-12.983 7.512l10.076 17.416-44.503 75.765c-7.33-2.036-15.448-1.273-22.558 2.78-13.814 7.875-18.943 26.018-10.898 39.925 7.974 13.782 26.256 18.636 40.102 10.744 16.37-9.327 19.769-32.404 6.317-45.899l44.535-75.818 90.664-.677 39.028 67.6c-9.918 9.003-12.384 24.449-5.639 36.104 7.974 13.783 26.256 18.636 40.102 10.744 13.814-7.873 18.945-26.019 10.898-39.924-6.582-11.378-19.783-16.675-32.055-13.877l-39.342-68.144 32.957-56.017c15.534 4.256 32.065-5.116 36.253-20.602 5.779-21.372-14.825-41.366-35.962-35.752l-32.647-56.638zm-6.404-31.86c1.631-6.032 7.674-10.594 13.949-10.594 9.051 0 16.284 8.975 13.888 17.836-3.236 11.962-20.158 14.305-26.435 3.458-1.888-3.262-2.386-7.062-1.402-10.7zm-193.809 384.671c-.998 3.688-3.393 6.771-6.745 8.682-16.017 9.124-30.529-15.379-14.348-24.606 6.854-3.905 15.779-1.536 19.691 5.225 1.888 3.261 2.386 7.061 1.402 10.699zm-164.506-269.719c-3.907-6.755-1.4-15.537 5.343-19.382 6.854-3.905 15.778-1.536 19.69 5.225 4.023 6.955.975 15.196-5.343 19.382-6.911 3.939-15.744 1.594-19.69-5.225zm34.617 12.171c9.734-11.005 9.514-28.394-.544-39.147l34.298-58.499 90.407.109 44.867 77.548-45.427 77.48-90.401-.109zm331.007 231.766c14.213 0 19.731 19.343 7.143 26.518-6.912 3.937-15.746 1.595-19.691-5.225-5.355-9.257 1.876-21.293 12.548-21.293zm-5.085-180.766c9.051 0 16.284 8.975 13.887 17.836-3.236 11.963-20.157 14.305-26.435 3.458-5.354-9.257 1.874-21.294 12.548-21.294z" fill="#ffffff" data-original="#000000" style=""/></g></g></svg>
