<?xml version="1.0"?>
<svg xmlns="http://www.w3.org/2000/svg" xmlns:xlink="http://www.w3.org/1999/xlink" xmlns:svgjs="http://svgjs.com/svgjs" version="1.1" width="512" height="512" x="0" y="0" viewBox="0 0 128 128" style="enable-background:new 0 0 512 512" xml:space="preserve" class=""><g><g xmlns="http://www.w3.org/2000/svg"><path d="m109.7 73.2c-.6-.3-18.8-9.7-18.8-9.7-.5-.3-1.1-.3-1.6 0l-18.8 9.7c-.7.4-1 1-1 1.6v20.6c0 .6.3 1.2.9 1.5 1.9 1 17.6 9.1 18.9 9.8.6.3 1.1.3 1.6 0 2.2-1.1 16.9-8.7 18.9-9.8.6-.3.9-.9.9-1.5 0 0 0-15.4 0-20.6.1-1-.5-1.4-1-1.6zm-19.6-6.2 15 7.7-15 7.7-15-7.7zm-17.1 10.6 15.4 7.9v16.7l-15.4-7.9zm34.3 16.7-15.4 7.9v-16.7l15.4-7.9z" fill="#ffffff" data-original="#000000" style="" class=""/><path d="m57.5 73.2c-1-.5-17-8.8-18.8-9.7-.5-.3-1.1-.3-1.6 0-.8.4-18.6 9.6-18.9 9.8-.7.4-1 .9-1 1.6v20.6c0 .6.3 1.2.9 1.5 1.9 1 17.6 9.1 18.9 9.8.6.3 1.1.3 1.6 0 .7-.4 17.8-9.2 18.9-9.8.6-.3.9-.9.9-1.5v-20.7c.1-.7-.2-1.2-.9-1.6zm-19.6-6.2 15 7.7-15 7.7-15-7.7zm-17.1 10.6 15.4 7.9v16.7l-15.4-7.9zm34.2 16.7-15.4 7.9v-16.7l15.4-7.9z" fill="#ffffff" data-original="#000000" style="" class=""/><path d="m64.8 63.7c1-.5 18.8-9.7 18.8-9.7.6-.3 1-.9 1-1.6 0 0 .1-15.4 0-20.6 0-.6-.3-1.2-1-1.6-1-.5-16.2-8.4-18.8-9.7-.5-.3-1.1-.3-1.6 0l-18.8 9.7c-.6.3-1 .9-1 1.6v20.6c0 .8.4 1.2 1 1.6 0 0 17.8 9.2 18.8 9.7.5.3 1 .3 1.6 0zm16.3-12.4-15.4 7.9v-16.7l15.4-7.9zm-17.1-27.3 15 7.7-15 7.7-15-7.7zm-17.1 10.6 15.4 7.9v16.7l-15.4-7.9z" fill="#ffffff" data-original="#000000" style="" class=""/></g></g></svg>
